<svg width="45" height="63" fill="none" xmlns="http://www.w3.org/2000/svg"><path d="M6 17A5 5 0 1 0 6 7a5 5 0 0 0 0 10Z" stroke="#B68C2D" stroke-miterlimit="10" stroke-linecap="round"/><path d="M35.685 62h-25.67c0-1.687 4.9-3.946 10.744-4.488V33.634L5.54 15.058A2.209 2.209 0 0 1 7.4 11.655h30.906a2.21 2.21 0 0 1 1.858 3.403L24.946 33.634v23.878c5.859.562 10.739 2.801 10.739 4.488ZM39.176 6.548 28 26M40.6 6.914A2.957 2.957 0 1 0 40.6 1a2.957 2.957 0 0 0 0 5.914Z" stroke="#B68C2D" stroke-miterlimit="10" stroke-linecap="round"/><path d="m14 17.964 3.803-.873a3.672 3.672 0 0 1 1.495-.027 3.46 3.46 0 0 1 1.352.568l1.222.866c.419.298.933.473 1.47.499a2.823 2.823 0 0 0 1.521-.355l.8-.454a6.233 6.233 0 0 1 2.191-.737 6.49 6.49 0 0 1 2.343.097l1.803.416M17 23.964l2.536-.873c.326-.112.667-.12.996-.027a2 2 0 0 1 .901.568l.815.866c.279.298.622.473.98.499.357.026.712-.099 1.014-.355l.533-.454a3.335 3.335 0 0 1 1.461-.737 2.923 2.923 0 0 1 1.562.097l1.202.416" stroke="#B68C2D" stroke-miterlimit="10" stroke-linecap="round"/></svg>