<svg width="58" height="60" fill="none" xmlns="http://www.w3.org/2000/svg"><g clip-path="url(#a)" stroke="#B68C2D" stroke-miterlimit="10"><path d="M44.28 34.776c-3.653 4.83-9.672 12.666-10.532 23.4 0 .429-.215.75-.537.965-.323.215-.645.43-1.075.43h-6.664c-.43 0-.752-.108-1.075-.43-.322-.214-.43-.644-.537-.966-.752-10.733-10.318-23.399-10.318-23.399"/><path d="m30.523 30.805-.107 11.807c0 .322.107.644.322.966.215.322.43.43.753.536.322.108.645.108.967 0 .323-.107.645-.322.753-.536l8.92-11.163M16.23 31.556l8.168 12.13c.215.214.537.428.752.536.323.107.645.107.968 0 .322-.108.537-.322.752-.537.215-.322.322-.537.322-.966l.108-11.807"/><path d="M7.093 14.705c-.215.322-.537.644-.86.751-1.612.537-3.116 1.718-4.084 3.22C1.074 20.18.537 22.004.537 23.828c0 8.372 2.687 12.451 8.383 12.558 1.398 0 2.687-.429 3.87-1.073.752-.43 1.397-.966 2.042-1.61 1.612-1.717 2.472-3.971 2.472-6.333 0-.322.107-.751.322-1.073.323-.322.645-.537.967-.644.323-.107.753-.107 1.075.107.323.215.538.537.753.859 1.182 2.683 4.514 4.4 8.49 4.4 3.87 0 7.202-1.717 8.491-4.4.215-.322.43-.537.645-.751.215-.108.538-.215.86-.215h.43c.43.107.752.322.967.644.215.322.323.644.323 1.073 0 2.362.86 4.616 2.472 6.333 1.612 1.61 3.654 2.576 5.911 2.576 4.3 0 8.383-6.01 8.168-12.45-.107-1.826-.645-3.65-1.612-5.153a9.14 9.14 0 0 0-4.084-3.22c-.322-.215-.645-.43-.86-.751-.107-.322-.215-.644-.215-1.074v-.322c0-.75-.107-1.502-.322-2.146-.215-.752-.645-1.288-1.075-1.825-.43-.537-.967-.859-1.612-1.18-.645-.323-1.29-.43-1.935-.43-1.182 0-2.364.43-3.224 1.288-.108.215-.43.322-.645.43a.92.92 0 0 1-.752 0c-.215-.108-.43-.215-.645-.43-.215-.107-.323-.43-.43-.644a12.038 12.038 0 0 0-4.3-5.689C33.534 1.288 31.277.537 28.913.537c-2.365 0-4.622.751-6.557 2.146-1.934 1.396-3.439 3.435-4.299 5.689-.107.215-.215.43-.43.644-.215.215-.537.322-.752.43a.92.92 0 0 1-.752 0c-.215-.108-.43-.215-.645-.43-.86-.859-2.042-1.288-3.225-1.288-1.29 0-2.58.644-3.547 1.61C7.738 10.304 7 13.605 7 15"/></g><defs><clipPath id="a"><path fill="#fff" d="M0 0h57.931v60H0z"/></clipPath></defs></svg>