<svg xmlns="http://www.w3.org/2000/svg" width="24" height="24" fill="none"><g clip-path="url(#a)"><path stroke="#B68C2D" d="m16.797 16.513.01-.009a.819.819 0 0 1 .38-.187.918.918 0 0 1 .44-.002c.593.286 1.411.445 2.074.574l.265.052c.353.086.806.125 1.258.143.464.02.963.02 1.412.02h.006c.478 0 .858.38.858.858v4.68c0 .402-.299.858-.858.858a22.119 22.119 0 0 1-15.647-6.495A22.119 22.119 0 0 1 .5 1.358C.5.798.956.5 1.358.5h4.68c.478 0 .858.38.858.858v.028c0 .738 0 1.833.16 2.637l.003.011.003.012c.034.136.069.29.107.46l.006.028c.04.179.084.373.132.568.093.372.211.776.378 1.121a.39.39 0 0 1-.01.273.134.134 0 0 1-.059.057.464.464 0 0 1-.22.041h-.214l-.148.156-2.868 3.019-.242.254.157.314c1.087 2.174 2.482 3.877 3.867 5.262 1.538 1.538 3.09 2.781 5.262 3.867l.314.157.254-.242 3.02-2.868Z"/></g><defs><clipPath id="a"><path fill="#fff" d="M0 0h24v24H0z"/></clipPath></defs></svg>