<svg xmlns="http://www.w3.org/2000/svg" width="32" height="32" fill="none"><path fill="#fff" d="M16 0C7.177 0 0 7.177 0 16s7.177 16 16 16 16-7.177 16-16S24.823 0 16 0Zm0 31C7.765 31 1 24.235 1 16S7.766 1 16 1c8.235 0 15 6.766 15 15 0 8.235-6.765 15-15 15Z"/><g clip-path="url(#a)"><path fill="#fff" d="M23.177 12.233a1.783 1.783 0 0 0-1.253-1.256c-1.113-.305-5.569-.31-5.569-.31s-4.454-.005-5.568.287a1.821 1.821 0 0 0-1.256 1.264c-.294 1.114-.297 3.424-.297 3.424s-.002 2.32.29 3.423c.163.61.643 1.09 1.253 1.255 1.125.306 5.568.31 5.568.31s4.455.006 5.569-.286a1.79 1.79 0 0 0 1.256-1.253c.294-1.113.297-3.422.297-3.422s.014-2.322-.29-3.436Zm-8.247 5.548.004-4.266 3.703 2.137-3.707 2.13Z"/></g><defs><clipPath id="a"><path fill="#fff" d="M8.533 10.667h14.933v10.667H8.533z"/></clipPath></defs></svg>