<svg width="32" height="32" fill="none" xmlns="http://www.w3.org/2000/svg"><path d="M16 0C7.177 0 0 7.177 0 16s7.177 16 16 16 16-7.177 16-16S24.823 0 16 0Zm0 30.934c-8.235 0-14.934-6.7-14.934-14.934 0-8.235 6.7-14.934 14.934-14.934 8.235 0 14.934 6.7 14.934 14.934 0 8.235-6.7 14.934-14.934 14.934Z" fill="#fff"/><g clip-path="url(#a)"><path d="M15.966 11.875a4.092 4.092 0 1 0 4.091 4.091 4.082 4.082 0 0 0-4.09-4.091Zm0 6.756a2.664 2.664 0 1 1 0-5.329 2.664 2.664 0 0 1 0 5.329Zm5.219-6.926a.998.998 0 1 1-1.997 0 .998.998 0 0 1 1.997 0Zm2.704.998a4.7 4.7 0 0 0-1.287-3.343 4.7 4.7 0 0 0-3.343-1.317c-1.297-.06-5.289-.06-6.586 0A4.72 4.72 0 0 0 9.33 9.33a4.7 4.7 0 0 0-1.287 3.343c-.06 1.297-.06 5.289 0 6.586a4.7 4.7 0 0 0 1.287 3.343 4.72 4.72 0 0 0 3.343 1.287c1.317.08 5.269.08 6.586 0a4.7 4.7 0 0 0 3.343-1.287 4.7 4.7 0 0 0 1.287-3.343c.06-1.297.06-5.289 0-6.586v.03Zm-1.696 7.983a2.693 2.693 0 0 1-1.517 1.517c-1.549.313-3.133.42-4.71.32a17.875 17.875 0 0 1-4.7-.32 2.695 2.695 0 0 1-1.517-1.517c-.419-1.058-.329-3.552-.329-4.71 0-1.157-.09-3.662.33-4.71a2.645 2.645 0 0 1 1.516-1.527 17.872 17.872 0 0 1 4.7-.319c1.577-.101 3.161.006 4.71.32a2.694 2.694 0 0 1 1.517 1.516c.419 1.058.32 3.553.32 4.71 0 1.158.099 3.662-.32 4.71v.01Z" fill="#fff"/></g><defs><clipPath id="a"><path fill="#fff" transform="translate(7.982 7.983)" d="M0 0h15.966v15.966H0z"/></clipPath></defs></svg>