<svg width="32" height="32" fill="none" xmlns="http://www.w3.org/2000/svg"><path d="M16 0C7.177 0 0 7.177 0 16s7.177 16 16 16 16-7.177 16-16S24.823 0 16 0Zm0 30.934c-8.235 0-14.934-6.7-14.934-14.934 0-8.235 6.7-14.934 14.934-14.934 8.235 0 14.934 6.7 14.934 14.934 0 8.235-6.7 14.934-14.934 14.934Z" fill="#fff"/><path d="M14.43 23.95h2.923v-7.285h2.445l.37-2.834h-2.815v-1.816c0-.819.23-1.378 1.407-1.378h1.507V8.093c-.26-.03-1.148-.11-2.185-.11-2.176 0-3.653 1.327-3.653 3.752v2.096h-2.454v2.834h2.454v7.284Z" fill="#fff"/></svg>