<svg width="52" height="62" fill="none" xmlns="http://www.w3.org/2000/svg"><path d="M51.361 20.935a12.487 12.487 0 0 1-4.61 9.688l-3.66 22.462H9.274L5.7 30.683A12.47 12.47 0 0 1 13.484 8.46c.431 0 .863.021 1.293.065a12.48 12.48 0 0 1 22.91 0 12.475 12.475 0 0 1 13.675 12.41v0ZM43.245 53.085H9.12a2.182 2.182 0 0 0-2.182 2.182v3.55c0 1.206.977 2.183 2.182 2.183h34.125a2.182 2.182 0 0 0 2.182-2.182v-3.551a2.182 2.182 0 0 0-2.182-2.182ZM26.182 19.67v22.784M35.87 27.138l-.524 14.918M16.494 27.138l.524 14.918" stroke="#B68C2D" stroke-miterlimit="10" stroke-linecap="round"/></svg>