<svg width="32" height="32" fill="none" xmlns="http://www.w3.org/2000/svg"><g clip-path="url(#a)"><path d="M16-.034C7.158-.034-.034 7.158-.034 16c0 8.842 7.192 16.034 16.034 16.034 8.842 0 16.034-7.192 16.034-16.034C32.034 7.158 24.842-.034 16-.034Zm0 31C7.748 30.966 1.034 24.252 1.034 16 1.034 7.748 7.748 1.034 16 1.034c8.252 0 14.966 6.714 14.966 14.966 0 8.252-6.714 14.966-14.966 14.966Z" fill="#fff"/><g clip-path="url(#b)"><path d="M16.598 22h-2.666v-8h2.666v1.334a3.078 3.078 0 0 1 2.35-1.176 3 3 0 0 1 2.984 3.009V22h-2.667v-4.5a1.51 1.51 0 0 0-1.498-1.296 1.211 1.211 0 0 0-1.169 1.296V22Zm-4 0H9.932v-8h2.666v8Zm-1.333-9.333a1.333 1.333 0 1 1 0-2.667 1.333 1.333 0 0 1 0 2.667Z" fill="#fff"/></g></g><defs><clipPath id="a"><path fill="#fff" d="M0 0h32v32H0z"/></clipPath><clipPath id="b"><path fill="#fff" transform="translate(9.932 10)" d="M0 0h12v12H0z"/></clipPath></defs></svg>