<svg xmlns="http://www.w3.org/2000/svg" width="32" height="32" fill="none"><g clip-path="url(#a)"><path fill="#fff" d="M16-.034C7.158-.034-.034 7.158-.034 16c0 8.842 7.192 16.034 16.034 16.034 8.842 0 16.034-7.192 16.034-16.034C32.034 7.158 24.842-.034 16-.034Zm0 31C7.748 30.966 1.034 24.252 1.034 16 1.034 7.748 7.748 1.034 16 1.034c8.252 0 14.966 6.714 14.966 14.966 0 8.252-6.714 14.966-14.966 14.966Z"/><g clip-path="url(#b)"><path fill="#fff" d="M22.106 13.198c.01.14.01.279.01.418 0 4.26-3.242 9.169-9.167 9.169A9.105 9.105 0 0 1 8 21.338c.26.03.509.04.778.04A6.456 6.456 0 0 0 12.78 20a3.23 3.23 0 0 1-3.013-2.234 3.429 3.429 0 0 0 1.458-.06 3.222 3.222 0 0 1-2.585-3.163v-.04c.43.24.928.389 1.456.409a3.218 3.218 0 0 1-1.437-2.683c0-.599.16-1.147.439-1.626a9.166 9.166 0 0 0 6.645 3.372c-.05-.24-.08-.489-.08-.738a3.22 3.22 0 0 1 3.222-3.223c.928 0 1.766.39 2.354 1.018a6.367 6.367 0 0 0 2.045-.778 3.216 3.216 0 0 1-1.417 1.776 6.462 6.462 0 0 0 1.856-.5 6.916 6.916 0 0 1-1.616 1.667Z"/></g></g><defs><clipPath id="a"><path fill="#fff" d="M0 0h32v32H0z"/></clipPath><clipPath id="b"><path fill="#fff" d="M8 10h16v12.8H8z"/></clipPath></defs></svg>