<svg width="120" height="121" fill="none" xmlns="http://www.w3.org/2000/svg"><path d="M71.239 105.67c.543-.134 1.026-.13 1.449.012.415.145.766.4 1.054.765.288.365.515.816.68 1.352l-1.086.602a5.725 5.725 0 0 0-.39-.929 1.886 1.886 0 0 0-.598-.668c-.235-.148-.519-.18-.853-.098-.341.085-.574.241-.699.47-.13.238-.152.536-.063.893.105.427.287.744.544.952.26.216.57.42.93.611l1.93 1.005c.377.195.679.433.905.715.228.29.4.671.518 1.145.17.691.105 1.275-.196 1.753-.302.479-.794.802-1.478.971a2.939 2.939 0 0 1-1.015.091 1.675 1.675 0 0 1-.82-.267 2.143 2.143 0 0 1-.644-.656 4.183 4.183 0 0 1-.498-1.013l1.043-.58c.1.305.217.577.35.816.135.246.311.425.528.536.211.121.48.141.806.06.326-.08.56-.233.702-.458.136-.214.162-.493.078-.834-.071-.287-.176-.513-.316-.676a2.255 2.255 0 0 0-.618-.452l-1.941-1.003a5.087 5.087 0 0 1-1.22-.884c-.377-.36-.639-.835-.785-1.425-.115-.466-.118-.893-.008-1.283.111-.382.316-.704.613-.967.29-.261.656-.446 1.098-.556ZM65.826 106.685c.7-.087 1.252-.015 1.66.217.408.231.71.589.908 1.073.198.491.34 1.074.423 1.749l.796 6.397-1.287.16-.803-6.456a7.131 7.131 0 0 0-.224-1.122c-.098-.334-.25-.589-.458-.765-.215-.175-.51-.239-.883-.193-.381.048-.65.182-.809.403-.158.221-.243.506-.256.855-.013.348.006.729.057 1.142l.803 6.456-1.274.158-.796-6.396c-.084-.675-.09-1.275-.018-1.8.072-.517.278-.938.617-1.262.33-.324.845-.529 1.544-.616ZM62.222 107.188l-.158 9.722-.924-.015-2.656-6.502-.104 6.457-1.129-.018.158-9.722.864.014 2.69 6.683.107-6.637 1.152.018ZM53.876 106.651c.556.069 1.005.245 1.35.53.335.283.572.647.71 1.091.14.445.19.947.153 1.507l-1.23.174c.017-.344.007-.68-.034-1.008a1.879 1.879 0 0 0-.32-.837c-.165-.223-.419-.355-.76-.397-.35-.043-.624.02-.822.189-.207.176-.334.446-.379.812-.054.436.002.798.168 1.085.166.294.382.595.65.903l1.444 1.63c.283.317.48.648.591.992.11.352.135.771.075 1.255-.088.707-.358 1.23-.811 1.569-.453.339-1.03.465-1.728.379a2.953 2.953 0 0 1-.982-.279 1.683 1.683 0 0 1-.67-.542 2.151 2.151 0 0 1-.368-.844c-.08-.325-.115-.7-.103-1.126l1.182-.168c-.015.321-.003.617.036.887.038.279.138.509.301.691.154.188.398.303.732.344.333.042.607-.017.82-.176.204-.153.328-.403.371-.753.037-.294.019-.542-.053-.744a2.246 2.246 0 0 0-.416-.644l-1.455-1.632a5.09 5.09 0 0 1-.824-1.263c-.224-.471-.298-1.008-.224-1.612.06-.476.21-.877.451-1.202a2.03 2.03 0 0 1 .92-.685c.363-.14.772-.182 1.225-.126ZM50.834 106.287l-2.208 9.469-3.67-.857.228-.982 2.35.548.73-3.132-1.905-.445.218-.935 1.906.444.81-3.472-2.373-.553.22-.947 3.694.862ZM45.316 104.823l-2.828 8.243 1.555.534-.327.954-4.349-1.493.328-.953 1.51.518 2.828-8.243 1.283.44ZM37.546 101.349c.493.265.85.592 1.067.981.21.386.3.811.27 1.275-.032.465-.166.951-.402 1.46l-1.211-.282c.141-.314.252-.631.333-.951a1.88 1.88 0 0 0 .005-.897c-.075-.267-.264-.482-.567-.645-.31-.166-.589-.206-.835-.12-.257.089-.472.296-.646.62-.208.388-.286.746-.235 1.073.048.334.142.693.28 1.077l.759 2.041c.15.398.214.777.192 1.138-.024.368-.152.768-.383 1.198-.337.627-.778 1.018-1.323 1.17-.545.153-1.127.063-1.748-.27a2.991 2.991 0 0 1-.815-.614 1.68 1.68 0 0 1-.43-.749 2.145 2.145 0 0 1-.037-.919 4.18 4.18 0 0 1 .31-1.087l1.163.27a4.69 4.69 0 0 0-.287.84 1.26 1.26 0 0 0 .032.753c.076.231.262.427.558.585.296.159.572.203.828.132.246-.068.452-.258.618-.568.14-.261.213-.499.22-.713-.002-.219-.053-.469-.156-.751l-.769-2.047a5.084 5.084 0 0 1-.312-1.475c-.038-.52.086-1.048.373-1.584.227-.424.512-.743.855-.959a2.023 2.023 0 0 1 1.104-.306c.39 0 .787.108 1.189.324ZM32.853 98.476c.538.38.893.79 1.066 1.227.174.438.192.899.056 1.383-.14.492-.397 1-.768 1.525l-2.137 3.021c-.372.525-.759.926-1.161 1.203-.413.278-.847.405-1.302.379-.465-.024-.967-.227-1.505-.607-.538-.381-.893-.784-1.064-1.211a2.076 2.076 0 0 1-.066-1.346c.12-.476.366-.977.737-1.502l2.144-3.031c.367-.519.76-.92 1.178-1.206.411-.29.851-.431 1.32-.425.463.013.964.21 1.502.59Zm-.62.876c-.295-.209-.56-.307-.794-.296a1.13 1.13 0 0 0-.668.296 4.19 4.19 0 0 0-.628.722l-2.472 3.494a3.9 3.9 0 0 0-.457.814c-.1.254-.115.49-.043.708.067.225.248.442.544.65.295.209.563.31.804.304.23-.005.448-.097.654-.277.2-.172.405-.407.614-.702l2.472-3.494c.209-.295.366-.573.471-.833.1-.254.12-.497.057-.728-.074-.23-.258-.449-.554-.658ZM29.959 96.391l-6.514 7.195-1.448-1.311c-.48-.434-.818-.858-1.014-1.273a1.732 1.732 0 0 1-.138-1.24c.098-.418.354-.855.767-1.31.252-.279.512-.507.78-.684.263-.171.532-.278.807-.32.27-.036.543.007.821.129l2.244-4.531.968.876-2.115 4.228.782.708 3.056-3.376 1.004.91Zm-4.711 3.186-.382-.345c-.285-.258-.548-.431-.79-.521a.963.963 0 0 0-.72.01c-.239.097-.497.3-.776.607-.38.42-.577.792-.59 1.115-.017.329.202.7.658 1.113l.444.402 2.156-2.38ZM25.623 92.312l-7.309 6.412-2.486-2.834.758-.665 1.591 1.814 2.419-2.121-1.29-1.471.721-.633 1.29 1.47 2.68-2.35-1.606-1.833.73-.64 2.502 2.85ZM22.615 88.83l-7.982 5.552-.528-.759 3.726-5.954-5.302 3.688-.644-.927 7.982-5.551.493.71-3.852 6.085 5.45-3.79.657.946ZM18.753 82.868l-7.677 4.125.779 1.449-.889.477-2.176-4.05.889-.477.755 1.406 7.677-4.125.642 1.195ZM16.215 77.232c.241.61.316 1.145.222 1.604a2.104 2.104 0 0 1-.706 1.183c-.385.333-.875.618-1.47.853l-3.426 1.358c-.595.235-1.136.36-1.622.37-.496.008-.927-.123-1.291-.391-.375-.273-.684-.715-.925-1.325-.242-.61-.318-1.14-.23-1.588.09-.449.316-.835.678-1.16.36-.33.836-.615 1.432-.85l3.437-1.362c.588-.233 1.133-.354 1.637-.365.501-.017.945.104 1.332.364.38.263.69.7.932 1.31Zm-.993.394c-.133-.335-.3-.562-.502-.68a1.126 1.126 0 0 0-.717-.116c-.277.04-.582.128-.917.26l-3.962 1.57c-.335.132-.61.275-.824.43-.222.156-.362.345-.421.566-.066.224-.033.504.1.839.132.334.301.565.506.69.194.121.426.163.695.125a3.86 3.86 0 0 0 .894-.251l3.962-1.57a4.17 4.17 0 0 0 .846-.438c.222-.157.37-.349.444-.576.063-.231.028-.515-.104-.85ZM14.228 71.502 4.7 73.349l-.372-1.917c-.123-.635-.139-1.178-.047-1.627.084-.447.296-.806.634-1.075.33-.275.796-.471 1.4-.588a4.15 4.15 0 0 1 1.034-.079c.313.02.592.097.838.228.237.133.43.332.579.596l4.514-2.279.248 1.282L9.3 70.005l.2 1.035 4.47-.866.258 1.329Zm-5.68-.278-.098-.506c-.073-.376-.18-.673-.32-.89a.963.963 0 0 0-.582-.424c-.249-.066-.577-.06-.985.02-.557.108-.937.287-1.14.538-.212.253-.26.681-.142 1.285l.114.588 3.153-.61ZM13.16 65.63l-9.69.814-.315-3.756 1.005-.084.201 2.404 3.206-.269-.164-1.95.957-.08.164 1.95 3.553-.299-.204-2.428.969-.081.317 3.78ZM12.975 58.726c-.012.56-.142 1.026-.39 1.397a2.283 2.283 0 0 1-1.013.82c-.428.183-.922.285-1.483.305l-.3-1.206a5.748 5.748 0 0 0 1-.136 1.88 1.88 0 0 0 .8-.404c.205-.188.31-.454.317-.798.008-.352-.083-.618-.271-.798-.197-.188-.479-.286-.847-.293-.44-.01-.794.084-1.062.278a5.41 5.41 0 0 0-.832.74l-1.473 1.602a2.767 2.767 0 0 1-.927.69c-.34.144-.753.212-1.24.202-.713-.015-1.26-.23-1.644-.647-.384-.416-.569-.976-.554-1.68.008-.384.067-.719.177-1.005a1.68 1.68 0 0 1 .47-.722c.213-.196.48-.347.802-.452a4.178 4.178 0 0 1 1.11-.217l.288 1.158c-.32.018-.614.06-.88.126a1.26 1.26 0 0 0-.655.37c-.172.173-.261.428-.268.764-.007.336.08.602.26.797.172.188.434.286.786.293.296.006.541-.037.735-.13.194-.1.394-.26.598-.479l1.474-1.614a5.082 5.082 0 0 1 1.172-.949c.446-.27.973-.4 1.581-.388.48.01.894.119 1.242.326.34.207.598.489.775.845.177.347.26.75.252 1.205ZM13.153 54.594 4.51 53.485l-.21 1.631-1-.128.585-4.56 1 .128-.203 1.584 8.644 1.108-.173 1.346ZM13.546 51.693l-8.957-4.239.301-1.269 9.91.222-.296 1.246-2.478-.133-.455 1.922 2.268 1.017-.293 1.234Zm-2.877-2.65.373-1.572-4.438-.215 4.065 1.787ZM15.924 43.526c-.246.66-.566 1.116-.96 1.371-.394.255-.85.358-1.37.309-.528-.052-1.11-.196-1.747-.434l-6.04-2.252.453-1.215 6.096 2.273c.39.146.756.252 1.098.32.341.068.638.05.89-.052.255-.11.448-.341.58-.694.133-.36.139-.66.016-.903-.123-.242-.336-.45-.64-.623a7.123 7.123 0 0 0-1.038-.477l-6.096-2.273.448-1.203 6.04 2.252c.637.237 1.172.51 1.605.816.425.303.702.68.834 1.13.133.443.077.995-.169 1.654ZM17.197 40.065l-8.598-4.54.914-1.73c.302-.574.63-1.007.984-1.3a1.737 1.737 0 0 1 1.17-.44c.43-.01.917.13 1.462.418.333.176.618.372.857.589.231.212.401.447.51.704.102.253.128.529.079.828l4.954 1.056-.611 1.157L14.29 35.8l-.493.934 4.033 2.13-.633 1.2Zm-4.26-3.783.24-.457c.18-.34.284-.638.31-.895a.965.965 0 0 0-.188-.697c-.153-.207-.413-.408-.781-.603-.502-.265-.912-.364-1.228-.296-.324.065-.63.37-.917.914l-.28.531 2.844 1.502ZM19.743 35.305l-6.81-7.241.746-1.075 9.171 3.84-.732 1.054-2.265-1.031-1.13 1.626 1.745 1.782-.725 1.045Zm-1.715-3.529.924-1.331-4.065-1.828 3.14 3.159ZM23.24 30.377l-7.254-6.474.615-.69 6.656 2.24-4.818-4.3.752-.841 7.254 6.474-.576.645-6.815-2.334 4.953 4.42-.768.86ZM28.11 25.17l-5.84-6.537-1.233 1.102-.675-.756 3.448-3.08.675.756-1.197 1.07 5.839 6.536-1.017.908ZM41.64 16.627c-.516.224-.995.3-1.437.23a2.29 2.29 0 0 1-1.171-.58c-.347-.314-.647-.722-.9-1.224l.975-.779c.16.307.34.592.542.854.209.26.443.447.703.561.257.107.544.092.86-.045.324-.141.528-.335.614-.582.089-.258.06-.556-.087-.895-.176-.405-.41-.689-.699-.852a5.423 5.423 0 0 0-1.022-.448l-2.078-.672a2.774 2.774 0 0 1-1.017-.556c-.274-.249-.509-.597-.704-1.046-.285-.656-.318-1.245-.1-1.77.22-.523.653-.926 1.3-1.208.354-.154.684-.24.99-.26.311-.03.597.012.857.127.267.111.516.292.747.542.235.239.456.545.663.92l-.936.748a4.67 4.67 0 0 0-.483-.749 1.264 1.264 0 0 0-.612-.443c-.23-.084-.499-.059-.808.076-.31.134-.515.325-.618.57-.1.236-.078.516.063.84.118.272.26.478.425.616.172.135.402.25.688.344l2.09.668c.466.147.918.37 1.355.671.433.293.772.72 1.015 1.279.192.441.267.864.223 1.268-.046.397-.194.75-.445 1.06-.243.307-.574.552-.994.735ZM46.813 14.834c-.676.197-1.233.215-1.673.051-.44-.163-.796-.467-1.068-.913-.274-.454-.507-1.007-.698-1.66l-1.809-6.186 1.245-.364 1.826 6.244c.116.4.25.757.4 1.071.15.315.342.542.575.683.24.138.541.154.902.048.369-.107.614-.283.734-.527.12-.244.16-.538.117-.884a7.121 7.121 0 0 0-.24-1.118l-1.826-6.245 1.233-.36 1.81 6.186c.19.653.292 1.245.305 1.774.011.522-.124.97-.407 1.345-.275.372-.75.657-1.426.855ZM50.334 13.77l-1.458-9.626.915-.138 3.702 5.979-.969-6.393 1.117-.17 1.459 9.626-.856.13-3.765-6.152.996 6.571-1.14.173ZM58.61 12.98c-.56.02-1.032-.084-1.416-.311a2.282 2.282 0 0 1-.875-.966c-.207-.417-.336-.905-.387-1.464l1.188-.366c.036.343.1.673.19.99.1.317.25.576.448.777.2.193.47.284.815.272.352-.013.612-.118.781-.316.177-.206.26-.493.246-.861-.015-.44-.127-.789-.337-1.045a5.414 5.414 0 0 0-.784-.79l-1.682-1.382a2.768 2.768 0 0 1-.74-.887c-.163-.33-.254-.74-.271-1.227-.025-.712.16-1.271.554-1.677.394-.407.943-.622 1.647-.647.383-.013.721.027 1.013.12.299.086.548.23.748.431.207.2.372.46.495.775.131.308.224.673.279 1.096l-1.14.352a4.652 4.652 0 0 0-.176-.87 1.26 1.26 0 0 0-.406-.635c-.182-.162-.44-.237-.777-.225-.336.012-.596.113-.782.304-.178.182-.26.45-.248.801.01.296.067.538.17.727.11.188.281.378.512.57l1.694 1.382c.38.307.717.68 1.012 1.118.296.43.454.949.475 1.556.017.48-.068.9-.256 1.259-.188.35-.454.624-.8.82-.337.197-.734.303-1.19.319ZM61.683 12.852l.673-9.7 3.76.261-.07 1.006-2.407-.167-.223 3.21 1.952.135-.066.958-1.952-.136-.247 3.557 2.431.168-.067.97-3.784-.262ZM67.375 13.42l1.472-8.589-1.621-.278.17-.994 4.531.777-.17.994-1.574-.27-1.47 8.59-1.338-.23ZM75.63 15.552c-.532-.184-.937-.453-1.215-.805a2.296 2.296 0 0 1-.47-1.224c-.042-.466.014-.97.168-1.514l1.248.089c-.091.334-.151.667-.18.998-.023.333.023.63.137.891.116.253.338.437.665.55.334.117.617.113.847-.012.241-.13.422-.369.544-.718.145-.418.166-.786.064-1.103-.1-.324-.25-.666-.45-1.025l-1.075-1.907a2.782 2.782 0 0 1-.372-1.1c-.033-.37.03-.786.192-1.25.234-.677.61-1.134 1.128-1.372.517-.238 1.11-.24 1.779-.008.365.127.667.287.906.481.25.189.432.414.545.675.122.264.183.566.184.907.01.336-.035.712-.137 1.128l-1.197-.083c.082-.312.133-.606.152-.88a1.266 1.266 0 0 0-.151-.743c-.112-.218-.327-.382-.647-.493-.319-.11-.6-.11-.843 0-.233.107-.408.328-.524.662-.098.282-.133.53-.105.744.036.216.127.457.274.72l1.086 1.912c.244.425.426.897.544 1.416.12.51.08 1.054-.12 1.632-.158.456-.39.818-.697 1.087-.304.26-.653.42-1.048.48-.388.06-.798.016-1.232-.135ZM80.654 17.702c-.59-.289-1.006-.635-1.246-1.038a2.108 2.108 0 0 1-.276-1.353c.06-.506.231-1.047.513-1.623l1.621-3.317c.282-.576.599-1.032.95-1.369.363-.34.77-.534 1.222-.58.462-.052.988.067 1.579.356.59.289 1.004.63 1.24 1.022.237.392.33.83.281 1.315-.042.488-.204 1.02-.486 1.596l-1.627 3.327c-.278.57-.6 1.028-.966 1.375-.36.351-.77.561-1.231.63-.459.061-.983-.052-1.574-.341Zm.47-.962c.324.159.6.214.83.165.232-.056.436-.189.61-.398.177-.217.345-.487.503-.811l1.875-3.835c.158-.325.265-.616.32-.875.059-.266.035-.5-.07-.704-.103-.21-.316-.395-.64-.553-.324-.159-.604-.215-.84-.17-.226.041-.426.167-.6.376-.17.203-.334.466-.493.79l-1.875 3.835a4.175 4.175 0 0 0-.33.896c-.06.266-.039.508.06.725.11.214.326.4.65.56ZM83.904 19.224l5.347-8.167 1.644 1.076c.544.357.946.726 1.206 1.107.264.374.374.778.33 1.21-.031.43-.217.905-.556 1.423-.207.315-.43.583-.668.8-.235.212-.485.36-.752.445-.263.078-.541.078-.836 0l-1.52 4.853-1.1-.72 1.44-4.531-.887-.581-2.509 3.832-1.14-.747Zm4.183-3.902.433.284c.323.211.612.343.866.394.254.052.493.01.714-.123.222-.133.447-.375.676-.724.313-.477.45-.877.412-1.2-.035-.33-.31-.664-.828-1.003l-.504-.33-1.77 2.702ZM88.796 22.625l6.202-7.489 2.903 2.404-.643.777-1.858-1.539-2.052 2.478 1.507 1.248-.613.74-1.507-1.249-2.274 2.746 1.877 1.554-.62.75-2.922-2.42ZM92.314 25.582l7.001-6.747.642.665-2.735 6.47 4.65-4.482.783.813-7.001 6.747-.6-.623 2.84-6.62-4.78 4.607-.8-.83ZM97.08 30.866l6.923-5.293-.999-1.306.801-.613 2.793 3.652-.801.613-.97-1.268-6.923 5.293-.824-1.078ZM100.469 36.022c-.334-.564-.491-1.08-.471-1.548a2.1 2.1 0 0 1 .511-1.28c.327-.39.766-.747 1.316-1.074l3.17-1.879c.55-.326 1.064-.534 1.542-.622.489-.085.935-.024 1.337.184.414.21.788.598 1.122 1.163.335.564.494 1.075.476 1.531a2.063 2.063 0 0 1-.486 1.251c-.302.384-.729.74-1.279 1.066l-3.18 1.886c-.544.322-1.063.528-1.559.617a2.188 2.188 0 0 1-1.372-.149c-.417-.2-.792-.581-1.127-1.146Zm.919-.545c.184.31.384.507.602.592.225.08.467.081.727.002.266-.084.555-.218.864-.401l3.665-2.174c.31-.183.558-.368.746-.553.194-.19.303-.399.326-.627.03-.231-.046-.502-.23-.812-.184-.31-.387-.51-.608-.602-.211-.089-.447-.093-.706-.014a3.858 3.858 0 0 0-.844.39l-3.665 2.172c-.31.184-.565.373-.766.566-.195.19-.311.403-.347.639-.026.239.052.513.236.822ZM103.389 41.364l9.111-3.395.683 1.833c.226.607.331 1.14.314 1.6a1.735 1.735 0 0 1-.449 1.166c-.28.326-.708.597-1.286.812a4.154 4.154 0 0 1-1.009.248 2.037 2.037 0 0 1-.865-.087 1.517 1.517 0 0 1-.671-.493l-4.084 2.995-.457-1.226 3.83-2.785-.369-.99-4.275 1.593-.473-1.27Zm5.659-.661.18.483c.134.36.288.636.462.827.174.192.389.3.646.323.256.024.579-.036.969-.182.533-.198.879-.438 1.039-.72.167-.284.143-.715-.072-1.292l-.21-.563-3.014 1.124ZM105.354 46.982l9.431-2.334.905 3.656-.978.242-.579-2.34-3.121.772.47 1.898-.932.23-.469-1.898-3.458.856.584 2.364-.943.233-.91-3.68ZM106.642 53.761c-.078-.554-.025-1.035.16-1.44.186-.399.476-.722.869-.972s.865-.43 1.415-.54l.489 1.144c-.338.072-.659.17-.965.294a1.874 1.874 0 0 0-.725.526c-.172.219-.233.498-.185.839.049.348.181.596.396.744.224.154.518.205.883.154.435-.062.77-.21 1.003-.445.242-.236.476-.524.703-.863l1.197-1.818c.232-.356.5-.633.804-.829.311-.198.709-.33 1.192-.399.705-.1 1.28.025 1.726.374.445.35.717.873.816 1.57.053.38.049.72-.014 1.02-.053.306-.17.57-.349.789a2.14 2.14 0 0 1-.719.574 4.175 4.175 0 0 1-1.059.392l-.471-1.097a4.67 4.67 0 0 0 .848-.265c.259-.11.455-.267.588-.471.141-.198.189-.463.142-.796-.047-.333-.175-.581-.384-.746-.201-.157-.475-.211-.823-.162-.294.041-.528.123-.705.245-.176.13-.347.32-.514.57l-1.195 1.83a5.11 5.11 0 0 1-1.005 1.123c-.397.34-.896.551-1.498.636-.475.068-.901.027-1.278-.122a2.02 2.02 0 0 1-.9-.71c-.231-.314-.378-.697-.442-1.149ZM107.11 57.868l8.71-.267-.05-1.644 1.007-.03.142 4.594-1.008.031-.049-1.595-8.711.267-.041-1.356ZM107.217 60.813l9.549 2.76-.094 1.305-9.847 1.37.092-1.28 2.475-.267.142-1.975-2.408-.644.091-1.269Zm3.274 2.162-.117 1.616 4.429-.498-4.312-1.118ZM106.137 69.256c.137-.69.379-1.193.727-1.507.348-.315.783-.49 1.304-.525.529-.034 1.127.016 1.794.148l6.322 1.256-.252 1.271-6.382-1.267a7.126 7.126 0 0 0-1.134-.14c-.349-.011-.639.053-.871.195-.234.15-.387.408-.461.777-.074.377-.032.675.129.895.16.22.404.39.73.512.327.122.694.223 1.102.304l6.382 1.267-.25 1.26-6.323-1.255c-.667-.133-1.238-.315-1.714-.549-.468-.231-.803-.559-1.005-.982-.203-.416-.236-.969-.098-1.66ZM105.461 72.879l9.237 3.111-.626 1.86c-.208.615-.463 1.096-.766 1.443-.295.349-.657.557-1.086.624-.424.077-.929.017-1.514-.18a4.172 4.172 0 0 1-.942-.444 2.038 2.038 0 0 1-.619-.615 1.522 1.522 0 0 1-.21-.807l-5.072-.248.419-1.243 4.74.25.338-1.003-4.333-1.46.434-1.288Zm4.823 3.06-.165.49c-.123.365-.177.677-.163.935a.969.969 0 0 0 .299.66c.184.18.474.337.87.47.539.182.96.214 1.263.096.31-.116.563-.467.76-1.052l.192-.57-3.056-1.03ZM103.683 77.976l7.875 6.065-.565 1.18-9.666-2.33.556-1.159 2.4.658.856-1.786-2.006-1.48.55-1.148Zm2.255 3.21-.701 1.462 4.304 1.158-3.603-2.62ZM101.017 83.393l8.19 5.241-.498.779-6.928-1.156 5.439 3.481-.608.95-8.19-5.241.467-.728 7.098 1.223-5.591-3.579.621-.97ZM97.018 89.284l6.797 5.49 1.036-1.283.787.636-2.896 3.586-.787-.636 1.006-1.245-6.798-5.49.855-1.058Z" fill="#B68C2D"/><path d="M62.456 56.325a10.33 10.33 0 0 1 .42-2.285c.11-.433.264-.852.462-1.252a6.27 6.27 0 0 1 4.99-3.389h.13a6.278 6.278 0 0 0 4.386-2.455 16.252 16.252 0 0 1-4.201 7.23c-.413.415-.847.808-1.302 1.177.862-.16 1.7-.43 2.493-.804a10.013 10.013 0 0 1-5.582 2.77c-.217.033-.434.051-.65.074a6.226 6.226 0 0 1 1.846-4.616c.235-.237.49-.453.762-.647a6.225 6.225 0 0 0-2.082 1.385 6.135 6.135 0 0 0-1.196 1.676 5.363 5.363 0 0 0-.222.503 6.2 6.2 0 0 0-.254.633ZM47.18 73.116a6.233 6.233 0 0 1 4.39-2.456h.102a6.26 6.26 0 0 0 4.954-3.389c.2-.398.355-.818.462-1.25a10.35 10.35 0 0 0 .42-2.285c-.06.22-.134.46-.212.664a6.213 6.213 0 0 1-1.417 2.18 6.325 6.325 0 0 1-2.087 1.384 6.256 6.256 0 0 0 2.331-3.26c.195-.65.284-1.329.263-2.008-.212 0-.434.042-.65.074a9.999 9.999 0 0 0-5.578 2.77c.791-.38 1.63-.65 2.493-.803-.458.365-.894.756-1.306 1.172a16.163 16.163 0 0 0-2.447 3.121c-.19.319-.407.698-.587 1.053a16.493 16.493 0 0 0-1.172 3.056l.041-.023Zm-.268-25.914a6.279 6.279 0 0 1 2.457 4.39.712.712 0 0 0 0 .098 6.187 6.187 0 0 0 1.8 3.804 6.205 6.205 0 0 0 2.835 1.63 10.406 10.406 0 0 0 2.29.415 5.94 5.94 0 0 1-1.173-.434 6.274 6.274 0 0 1-3.051-3.282 6.256 6.256 0 0 0 3.26 2.331c.65.198 1.328.287 2.007.263 0-.212-.041-.434-.074-.646a10 10 0 0 0-2.77-5.582c.375.793.645 1.63.804 2.493-.368-.457-.76-.893-1.178-1.306a16.096 16.096 0 0 0-4.173-3.034 16.326 16.326 0 0 0-3.052-1.172l.018.032ZM64.663 63.87a6.314 6.314 0 0 0-2.008-.268c0 .217.041.434.074.651a10 10 0 0 0 2.77 5.582 10.08 10.08 0 0 1-.804-2.493c.369.455.76.89 1.173 1.306a16.163 16.163 0 0 0 4.174 3.029c.976.495 2 .889 3.056 1.177a6.888 6.888 0 0 1-.656-.568 6.247 6.247 0 0 1-1.8-3.822v-.102a6.255 6.255 0 0 0-4.64-5.434 10.234 10.234 0 0 0-2.285-.416c.226.057.448.128.665.213a6.283 6.283 0 0 1 3.56 3.5 6.318 6.318 0 0 0-.652-.762 6.218 6.218 0 0 0-2.627-1.616v.023Zm-22.982-3.657a6.229 6.229 0 0 1 4.838 1.367l.074.065a6.219 6.219 0 0 0 3.966 1.417 6.283 6.283 0 0 0 3.153-.859 9.04 9.04 0 0 0 .923-.55c.349-.235.682-.493.998-.77-.201.119-.41.225-.624.318a6.27 6.27 0 0 1-4.99.041 6.276 6.276 0 0 0 3.947-.656 6.461 6.461 0 0 0 1.611-1.232 10.023 10.023 0 0 0-6.413-2.4c.818.298 1.594.7 2.309 1.196a16.623 16.623 0 0 0-5.688.383c-.356.088-.776.208-1.159.332-1.023.342-2.01.786-2.945 1.325v.023Zm23.291-1.385a6.269 6.269 0 0 1 4.995-.041 6.454 6.454 0 0 0-.996-.079 6.24 6.24 0 0 0-4.562 1.971c.166.14.337.273.513.407a9.99 9.99 0 0 0 5.9 1.99 9.933 9.933 0 0 1-2.332-1.196c.583.061 1.169.092 1.755.092a16.21 16.21 0 0 0 3.929-.475 16.117 16.117 0 0 0 4.15-1.662 6.219 6.219 0 0 1-4.838-1.367l-.074-.064a6.278 6.278 0 0 0-5.9-1.109 6.164 6.164 0 0 0-1.22.55 9.058 9.058 0 0 0-.922.55 10.08 10.08 0 0 0-.998.77c.194-.13.394-.25.6-.36v.023Zm-6.828 9.695a15.697 15.697 0 0 0-.092 1.755 16.192 16.192 0 0 0 .475 3.929 16.259 16.259 0 0 0 1.662 4.15 6.238 6.238 0 0 1 1.431-4.922 6.278 6.278 0 0 0 1.109-5.9 5.927 5.927 0 0 0-.55-1.218 9.671 9.671 0 0 0-1.32-1.92 6.329 6.329 0 0 1 .522 1.14 6.27 6.27 0 0 1-.162 4.478c.052-.332.078-.667.078-1.002a6.241 6.241 0 0 0-1.97-4.557c-.14.166-.273.337-.407.508a10.013 10.013 0 0 0-1.99 5.905 9.79 9.79 0 0 1 1.214-2.378v.032Zm1.672-26.814a6.219 6.219 0 0 1-1.371 4.843l-.07.079a6.27 6.27 0 0 0-1.108 5.895c.14.426.324.837.55 1.224a9.916 9.916 0 0 0 1.325 1.92c-.121-.2-.229-.409-.324-.623a8.51 8.51 0 0 1-.203-.512 6.348 6.348 0 0 1 .162-4.483 6.525 6.525 0 0 0-.079 1.002 6.241 6.241 0 0 0 1.972 4.556 10.014 10.014 0 0 0 2.396-6.408 9.987 9.987 0 0 1-1.196 2.309c.064-.583.094-1.169.092-1.755.001-.958-.08-1.914-.244-2.858a16.996 16.996 0 0 0-.564-2.23 16.478 16.478 0 0 0-1.339-2.991v.032Z" fill="url(#a)"/><defs><linearGradient id="a" x1="60" y1="41.962" x2="60" y2="78.606" gradientUnits="userSpaceOnUse"><stop stop-color="#EE4224"/><stop offset=".06" stop-color="#E55025"/><stop offset=".25" stop-color="#D56A27"/><stop offset=".44" stop-color="#C87929"/><stop offset=".63" stop-color="#BF822B"/><stop offset=".82" stop-color="#BA882C"/><stop offset="1" stop-color="#B88A2D"/></linearGradient></defs></svg>