<svg width="180" height="44" fill="none" xmlns="http://www.w3.org/2000/svg"><path d="M55.222 13.61c.172.263.386.496.633.69.256.196.593.432 1.005.714.387.242.76.504 1.12.786.285.228.526.506.713.82.198.337.299.722.29 1.113a2.23 2.23 0 0 1-.391 1.3c-.274.388-.65.695-1.085.885a3.652 3.652 0 0 1-1.541.312 5.335 5.335 0 0 1-1.316-.17 2.402 2.402 0 0 1-.924-.388.349.349 0 0 1-.106-.106.263.263 0 0 1-.035-.161l-.045-2.23c0-.036.025-.056.07-.061.046-.005.076 0 .086.045.28.574.527 1.037.733 1.39.211.357.481.675.798.941.305.266.696.411 1.1.408.334.013.662-.094.924-.302a1.275 1.275 0 0 0 .362-1.007 2.079 2.079 0 0 0-.271-1.077 2.903 2.903 0 0 0-.663-.79 14.478 14.478 0 0 0-1.08-.771c-.362-.228-.71-.477-1.044-.745a2.92 2.92 0 0 1-.633-.74 1.907 1.907 0 0 1-.266-1.007 1.886 1.886 0 0 1 .426-1.254 2.51 2.51 0 0 1 1.095-.76 4.161 4.161 0 0 1 1.416-.242c.337 0 .673.03 1.005.09.276.044.547.116.808.217a.362.362 0 0 1 .171.121.309.309 0 0 1 .04.161v2.06c0 .03 0 .05-.07.065s-.075 0-.08 0l-.116-.267a6.205 6.205 0 0 0-.819-1.51 1.548 1.548 0 0 0-1.305-.62c-.336-.014-.665.101-.92.323a1.209 1.209 0 0 0-.356.941c.01.295.105.582.271.826ZM67.38 11.898a1.156 1.156 0 0 0-.959-.433s-.025-.03-.025-.085c0-.056 0-.086.025-.086h.673c.357 0 .638.03.854.03.216 0 .431 0 .768-.03h.648s.025.03.025.085c0 .056 0 .086-.025.086a1.003 1.003 0 0 0-.854.433 2.018 2.018 0 0 0-.311 1.193v3.902a3.37 3.37 0 0 1-.432 1.722 2.905 2.905 0 0 1-1.225 1.148 4.009 4.009 0 0 1-1.828.398 4.11 4.11 0 0 1-1.833-.393 2.955 2.955 0 0 1-1.25-1.123 3.344 3.344 0 0 1-.458-1.762v-4.531c.01-.21-.016-.419-.075-.62a.458.458 0 0 0-.281-.271 1.964 1.964 0 0 0-.638-.076c-.025 0-.04-.03-.04-.085 0-.056 0-.086.04-.086h.743c.432 0 .768.03 1.004.03s.633 0 1.06-.03h.718c.025 0 .04.03.04.086 0 .055 0 .085-.04.085a1.676 1.676 0 0 0-.638.086.5.5 0 0 0-.28.287c-.06.202-.086.413-.076.624v4.028c-.07.874.162 1.745.658 2.467a2.264 2.264 0 0 0 1.858.8 2.37 2.37 0 0 0 1.823-.71 2.88 2.88 0 0 0 .658-2.013V13.09a1.872 1.872 0 0 0-.327-1.193ZM79.716 11.379c0 .055 0 .085-.03.085a1.002 1.002 0 0 0-.88.444 1.957 1.957 0 0 0-.326 1.183v7.164s0 .045-.06.056a.085.085 0 0 1-.09 0l-6.564-7.487v5.458c-.024.415.084.827.306 1.178a1.005 1.005 0 0 0 .854.438s.03.025.03.08c0 .056 0 .086-.03.086H70.013c-.025 0-.04-.03-.04-.086 0-.055 0-.08.04-.08a1.186 1.186 0 0 0 .975-.438c.255-.338.382-.756.356-1.178v-5.936a3.657 3.657 0 0 0-.788-.695 1.353 1.353 0 0 0-.678-.187s-.03-.03-.03-.085c0-.056 0-.086.03-.086h2.681a.251.251 0 0 1 .171.056l.196.241c.156.217.266.358.331.433l4.847 5.599v-4.531a2.018 2.018 0 0 0-.312-1.193 1.006 1.006 0 0 0-.853-.434s-.026-.03-.026-.085c0-.056 0-.086.026-.086h.602c.301 0 .553.03.758.03.206 0 .447 0 .784-.03h.627s.006.03.006.086ZM82.541 13.61c.174.263.389.496.638.69.251.196.593.432 1.004.714.388.242.761.504 1.12.786.3.224.555.502.754.82.2.336.302.722.296 1.113.007.463-.13.918-.392 1.299-.274.39-.65.696-1.085.886a3.677 3.677 0 0 1-1.546.312 5.335 5.335 0 0 1-1.316-.17 2.402 2.402 0 0 1-.924-.389.503.503 0 0 1-.106-.105.262.262 0 0 1-.035-.161l-.04-2.23c0-.036 0-.056.07-.061.07-.005.07 0 .08.045.282.574.528 1.037.739 1.39.208.358.476.676.793.941.306.265.697.41 1.1.408.334.013.662-.094.924-.302a1.28 1.28 0 0 0 .367-1.007 2.085 2.085 0 0 0-.276-1.077 2.905 2.905 0 0 0-.658-.831 14.448 14.448 0 0 0-1.08-.77 10.44 10.44 0 0 1-1.04-.746 2.837 2.837 0 0 1-.637-.74 1.952 1.952 0 0 1-.266-1.007 1.886 1.886 0 0 1 .426-1.253 2.566 2.566 0 0 1 1.09-.78c.453-.163.93-.244 1.411-.242.337 0 .673.03 1.005.09.278.044.55.117.813.217a.347.347 0 0 1 .166.12c.03.049.044.105.04.162v2.059c0 .03 0 .05-.065.065s-.075 0-.085 0l-.116-.267a6.047 6.047 0 0 0-.819-1.51 1.549 1.549 0 0 0-1.305-.62 1.324 1.324 0 0 0-.92.323 1.21 1.21 0 0 0-.376.921c-.011.321.077.638.251.907ZM94.06 17.804a.136.136 0 0 1 .076 0s.035 0 .035.03c-.088.668-.135 1.34-.14 2.014a.232.232 0 0 1-.04.161.21.21 0 0 1-.166.05h-6.187c-.03 0-.045-.03-.045-.085 0-.056 0-.08.045-.08a2.21 2.21 0 0 0 .648-.071.443.443 0 0 0 .276-.277 2.1 2.1 0 0 0 .07-.624v-6.49a2.067 2.067 0 0 0-.07-.62.445.445 0 0 0-.281-.271 2.047 2.047 0 0 0-.643-.076c-.03 0-.045-.03-.045-.085 0-.056 0-.086.045-.086h5.95c.096 0 .142.045.142.126l.03 1.868s-.026.035-.08.04c-.056.005-.081 0-.091-.025a2.14 2.14 0 0 0-.753-1.209 2.31 2.31 0 0 0-1.401-.392h-.417a.887.887 0 0 0-.618.181.745.745 0 0 0-.196.564v2.86h1.16c.433.027.865-.07 1.246-.277a.89.89 0 0 0 .436-.786c0-.03.026-.045.076-.045s.075.015.075.045v1.934c0 .317.03.569.03.76 0 0-.03.025-.085.025-.055 0-.085 0-.085-.025a1.066 1.066 0 0 0-.437-.906 2.09 2.09 0 0 0-1.291-.307h-1.145v3.171a.953.953 0 0 0 .156.604.582.582 0 0 0 .502.197h.462c.609.027 1.212-.13 1.733-.448.469-.341.81-.83.969-1.39 0 0 .015-.055.055-.055ZM95.503 13.79c0 .03-.04.04-.085.036-.045-.005-.07 0-.07-.045.04-.378.08-.861.125-1.455.045-.595.07-1.038.07-1.34 0-.045.026-.07.08-.07.056 0 .076 0 .076.07 0 .207.266.307.799.307.803.03 1.737.046 2.812.046.547 0 1.135 0 1.748-.03h.954c.259.01.52-.013.773-.07a.417.417 0 0 0 .316-.277c0-.041.041-.056.091-.056.05 0 .075 0 .075.055-.025.277-.055.73-.09 1.344a26.366 26.366 0 0 0-.045 1.51s-.026.041-.071.041-.075 0-.085-.04a2.93 2.93 0 0 0-.784-1.621 1.969 1.969 0 0 0-1.416-.544.659.659 0 0 0-.537.176 1.187 1.187 0 0 0-.131.67v6.43c-.012.214.016.429.081.633a.502.502 0 0 0 .321.267c.249.056.504.08.758.07.031 0 .041.026.041.081 0 .056 0 .086-.041.086h-3.902c-.03 0-.045-.03-.045-.086 0-.055 0-.08.045-.08.252.007.503-.016.749-.07a.502.502 0 0 0 .331-.278c.076-.199.108-.411.096-.624v-6.495a1.181 1.181 0 0 0-.126-.644.642.642 0 0 0-.502-.171c-1.122 0-1.925.725-2.41 2.175ZM109.752 13.61c.174.263.389.496.638.69.251.196.593.432 1.004.714.388.242.762.504 1.12.786.286.228.527.506.713.82.201.336.303.722.297 1.113.007.463-.13.917-.392 1.299a2.6 2.6 0 0 1-1.085.886 3.675 3.675 0 0 1-1.546.312 5.339 5.339 0 0 1-1.316-.17 2.447 2.447 0 0 1-.924-.389.518.518 0 0 1-.106-.105.31.31 0 0 1-.035-.162l-.04-2.23c0-.035 0-.055.07-.06.071-.005.076 0 .081.045.281.574.527 1.037.738 1.39.211.357.481.675.798.941.304.265.693.41 1.095.408a1.39 1.39 0 0 0 .924-.302c.131-.13.232-.288.296-.462.063-.175.087-.36.071-.545a2.025 2.025 0 0 0-.276-1.077 2.907 2.907 0 0 0-.663-.791 14.472 14.472 0 0 0-1.08-.77 10.337 10.337 0 0 1-1.039-.745 2.926 2.926 0 0 1-.638-.74 1.936 1.936 0 0 1-.266-1.007 1.885 1.885 0 0 1 .426-1.254 2.572 2.572 0 0 1 1.1-.76c.46-.187.95-.29 1.446-.302.337 0 .673.03 1.005.09.278.044.55.116.813.217a.32.32 0 0 1 .166.12.264.264 0 0 1 .045.162v2.059c0 .03-.025.05-.07.065-.045.015-.075 0-.085 0l-.111-.267a6.38 6.38 0 0 0-.818-1.51 1.56 1.56 0 0 0-1.311-.62c-.335-.014-.662.102-.914.323a1.206 1.206 0 0 0-.362.941c-.01.312.07.62.231.887ZM117.072 19.622a4.203 4.203 0 0 1-1.567-1.657 4.796 4.796 0 0 1-.552-2.276 4.188 4.188 0 0 1 .733-2.482 4.582 4.582 0 0 1 1.868-1.55 5.555 5.555 0 0 1 2.33-.504 4.338 4.338 0 0 1 2.33.614 4.21 4.21 0 0 1 1.542 1.647c.358.668.544 1.416.542 2.175a4.302 4.302 0 0 1-.673 2.34 4.823 4.823 0 0 1-1.798 1.687 5.006 5.006 0 0 1-2.435.64 4.41 4.41 0 0 1-2.32-.634Zm4.188-.197c.438-.344.769-.807.954-1.334.251-.669.37-1.38.352-2.095a6.414 6.414 0 0 0-.352-2.285 3.587 3.587 0 0 0-1.135-1.591 2.74 2.74 0 0 0-1.732-.574 2.264 2.264 0 0 0-1.959.961 4.548 4.548 0 0 0-.698 2.659c-.014.83.125 1.657.412 2.436.23.647.62 1.224 1.135 1.677a2.476 2.476 0 0 0 1.632.604c.501.003.989-.158 1.391-.458ZM133.621 19.978c0 .056 0 .086-.045.086h-2.115c-.08 0-.246-.192-.502-.574a15.845 15.845 0 0 1-.848-1.586 18.969 18.969 0 0 1-.929-2.23 2.062 2.062 0 0 1-.292 0h-.868v3.252c-.011.214.015.429.075.634a.459.459 0 0 0 .296.267c.235.057.477.08.718.07 0 0 .03.026.03.081 0 .056 0 .086-.03.086h-3.55c-.03 0-.045-.03-.045-.086 0-.055 0-.08.045-.08.218.008.436-.015.648-.07a.46.46 0 0 0 .281-.278 1.91 1.91 0 0 0 .075-.624V12.43a1.905 1.905 0 0 0-.07-.62.437.437 0 0 0-.276-.271 2.065 2.065 0 0 0-.648-.075s-.025-.03-.025-.086c0-.056 0-.086.025-.086h.743c.427 0 .768.03 1.004.03.237 0 .573 0 .899-.045l.397-.025h.583c.7-.044 1.399.12 2.008.468a1.505 1.505 0 0 1 .708 1.314c-.005.47-.16.925-.441 1.3a3.297 3.297 0 0 1-1.125.971 21.716 21.716 0 0 0 1.908 3.524c.502.705.959 1.063 1.321 1.063.03.005.045.03.045.085Zm-4.675-4.657c.274.014.548-.04.798-.156a.901.901 0 0 0 .427-.503c.098-.347.142-.707.13-1.068a2.691 2.691 0 0 0-.336-1.586 1.139 1.139 0 0 0-.964-.433 1.055 1.055 0 0 0-.748.207.951.951 0 0 0-.179.33c-.037.121-.05.249-.037.374v2.805c.301.033.605.043.909.03ZM143.39 19.978c0 .056 0 .086-.03.086h-2.511c-.206 0-.588-.388-1.145-1.158a35.347 35.347 0 0 1-2.009-3.232 2.646 2.646 0 0 1-.326 0h-.769v3.252c-.009.214.015.428.071.634a.432.432 0 0 0 .271.267c.213.055.433.08.653.07 0 0 .03.026.03.081 0 .056 0 .086-.03.086h-3.556s-.04-.03-.04-.086c0-.055 0-.08.04-.08.22.009.44-.015.653-.07a.444.444 0 0 0 .281-.278 1.91 1.91 0 0 0 .076-.624V12.43a2.055 2.055 0 0 0-.071-.62.429.429 0 0 0-.281-.271 2.007 2.007 0 0 0-.643-.075s-.025-.03-.025-.086c0-.056 0-.086.025-.086h.743c.427 0 .769.03 1.005.03.236 0 .572 0 .899-.045l.397-.025h.582a3.594 3.594 0 0 1 2.009.468 1.51 1.51 0 0 1 .708 1.314 2.202 2.202 0 0 1-.392 1.234 3.063 3.063 0 0 1-1.004.956c.75 1.179 1.377 2.1 1.883 2.764.388.54.844 1.027 1.356 1.45.324.276.73.437 1.155.459 0 0-.005.025-.005.08Zm-5.976-4.657c.275.014.549-.04.798-.156a.898.898 0 0 0 .427-.503c.099-.347.143-.707.131-1.068a2.692 2.692 0 0 0-.337-1.586 1.135 1.135 0 0 0-.964-.433.887.887 0 0 0-.673.207 1.01 1.01 0 0 0-.196.704v2.805c.27.03.542.04.814.03ZM150.22 17.804a.149.149 0 0 1 .075 0c.025 0 .035 0 .035.03-.09.668-.137 1.34-.14 2.014a.268.268 0 0 1-.04.161.22.22 0 0 1-.171.05h-6.172c-.03 0-.045-.03-.045-.085 0-.056 0-.08.045-.08.218.008.436-.016.648-.071a.422.422 0 0 0 .271-.277c.057-.203.081-.414.07-.624v-6.49a1.905 1.905 0 0 0-.07-.62.435.435 0 0 0-.276-.271 2.048 2.048 0 0 0-.643-.076c-.03 0-.045-.03-.045-.085 0-.056 0-.086.045-.086h5.931c.095 0 .14.045.14.126l.025 1.868s-.025.035-.075.04c-.05.005-.08 0-.09-.025a2.167 2.167 0 0 0-.754-1.209 2.31 2.31 0 0 0-1.411-.397h-.422a.881.881 0 0 0-.612.181.744.744 0 0 0-.196.564v2.86h1.16c.433.026.864-.07 1.245-.277a.881.881 0 0 0 .432-.786c0-.03.025-.045.081-.045.055 0 .075 0 .075.045v1.934c0 .317.03.569.03.76 0 0-.03.025-.085.025-.056 0-.086 0-.086-.025a1.055 1.055 0 0 0-.442-.906 2.056 2.056 0 0 0-1.265-.333h-1.145v3.172c-.015.212.038.424.151.604a.592.592 0 0 0 .502.197h.462a3.055 3.055 0 0 0 1.747-.448c.468-.342.808-.832.965-1.39 0 0 .01-.025.05-.025ZM161.094 11.379c0 .055 0 .085-.031.085a1.002 1.002 0 0 0-.878.444c-.232.349-.345.764-.322 1.183v7.164s-.025.045-.065.056a.093.093 0 0 1-.091 0l-6.563-7.487v5.458a1.99 1.99 0 0 0 .306 1.178 1.011 1.011 0 0 0 .854.438s.03.025.03.08c0 .056 0 .086-.03.086H151.396c-.03 0-.045-.03-.045-.086 0-.055 0-.08.045-.08a1.185 1.185 0 0 0 .97-.438 1.78 1.78 0 0 0 .356-1.178v-5.936a3.562 3.562 0 0 0-.788-.695 1.355 1.355 0 0 0-.678-.187s-.03-.03-.03-.085c0-.056 0-.086.03-.086h2.656a.251.251 0 0 1 .171.056l.196.241c.156.217.271.358.336.433l4.841 5.599v-4.531a2.01 2.01 0 0 0-.311-1.193 1.004 1.004 0 0 0-.854-.434V11.293h.603c.301 0 .552.03.758.03.206 0 .447 0 .784-.03h.627s.031.03.031.086ZM161.946 13.79c0 .03-.04.04-.086.036-.045-.005-.07 0-.07-.045.035-.378.08-.861.126-1.455.045-.595.07-1.038.07-1.34 0-.045.025-.07.075-.07.05 0 .081 0 .081.07 0 .207.266.307.798.307.799.03 1.738.046 2.812.046.549 0 1.132-.01 1.748-.03h.949c.261.011.523-.013.778-.07a.418.418 0 0 0 .317-.278c0-.04.04-.055.09-.055.05 0 .075 0 .075.055-.025.277-.055.73-.09 1.344-.035.615-.05 1.113-.05 1.51 0 0 0 .041-.07.041-.071 0-.071 0-.081-.04a2.922 2.922 0 0 0-.783-1.621 1.979 1.979 0 0 0-1.416-.544.652.652 0 0 0-.538.176 1.187 1.187 0 0 0-.13.67v6.43c-.012.214.015.429.08.633a.492.492 0 0 0 .321.267c.249.056.504.08.759.07 0 0 .04.026.04.081 0 .056 0 .086-.04.086h-3.907c-.025 0-.04-.03-.04-.086 0-.055 0-.08.04-.08.251.008.503-.016.748-.07a.503.503 0 0 0 .337-.278c.07-.2.101-.412.09-.624v-6.495a1.144 1.144 0 0 0-.126-.644.622.622 0 0 0-.502-.171c-1.118 0-1.92.725-2.405 2.175ZM172.782 19.621a4.148 4.148 0 0 1-1.567-1.656 4.758 4.758 0 0 1-.552-2.276 4.162 4.162 0 0 1 .728-2.482 4.52 4.52 0 0 1 1.868-1.55 5.548 5.548 0 0 1 2.33-.504 4.339 4.339 0 0 1 2.336.624c.65.397 1.18.962 1.536 1.636.354.67.539 1.417.538 2.175a4.274 4.274 0 0 1-.673 2.342 4.794 4.794 0 0 1-1.798 1.686 4.966 4.966 0 0 1-2.431.64 4.39 4.39 0 0 1-2.315-.635Zm4.183-.196c.452-.34.795-.803.99-1.334.246-.67.363-1.381.346-2.095a6.41 6.41 0 0 0-.391-2.31 3.617 3.617 0 0 0-1.13-1.592 2.765 2.765 0 0 0-1.738-.574 2.258 2.258 0 0 0-1.958.962 4.53 4.53 0 0 0-.683 2.684c-.015.83.125 1.657.411 2.436a4.03 4.03 0 0 0 1.125 1.677 2.477 2.477 0 0 0 1.632.604c.498 0 .982-.16 1.381-.458h.015ZM92.87 32.52v.045h-1.29c-.126 0-.352-.221-.688-.67-.337-.447-.743-1.072-1.22-1.877a1.578 1.578 0 0 1-.266 0h-.417V31.9c-.006.122.009.245.045.362a.242.242 0 0 0 .166.151 1.5 1.5 0 0 0 .396.04v.096h-2.033v-.095c.133.005.266-.01.396-.04a.27.27 0 0 0 .176-.157c.035-.116.05-.236.045-.357v-3.726a1.18 1.18 0 0 0-.04-.352.276.276 0 0 0-.176-.157 1.257 1.257 0 0 0-.391-.045v-.096H89.59c.384-.024.766.069 1.095.267a.84.84 0 0 1 .387.745c-.001.256-.08.506-.226.715a1.694 1.694 0 0 1-.583.55c.437.674.804 1.202 1.1 1.59.228.31.495.589.793.83.19.158.427.248.673.258 0 0 .04.005.04.04Zm-3.444-2.699a.875.875 0 0 0 .677-.221c.153-.236.22-.517.191-.796a1.397 1.397 0 0 0-.216-.901.758.758 0 0 0-.612-.257.554.554 0 0 0-.397.161.631.631 0 0 0-.105.423v1.591c.153.012.308.012.462 0ZM97.53 31.296h.046c-.052.37-.079.744-.08 1.118.01.031.01.064 0 .096a.144.144 0 0 1-.096 0h-3.485v-.096a1.5 1.5 0 0 0 .402-.04.257.257 0 0 0 .166-.156c.035-.116.05-.237.045-.358v-3.726a1.01 1.01 0 0 0-.046-.352.266.266 0 0 0-.17-.156 1.272 1.272 0 0 0-.397-.045v-.096h3.34c.055 0 .08 0 .08.07v1.048h-.095a1.038 1.038 0 0 0-1.115-.917h-.322a.617.617 0 0 0-.406.106.444.444 0 0 0-.121.353v1.64h.768c.588 0 .884-.195.884-.593 0 0 0-.025.045-.025.046 0 .04 0 .04.025v1.551h-.1c0-.459-.296-.69-.899-.69h-.758v1.822a.504.504 0 0 0 .1.373c.101.08.229.117.357.106h.392A1.299 1.299 0 0 0 97.5 31.33s.01-.035.03-.035ZM100.233 28.92c.105.154.236.288.387.398.145.11.346.246.597.402.251.157.502.318.648.443.161.126.297.28.402.454.11.19.166.408.161.629.003.26-.07.516-.211.735-.15.221-.359.396-.603.503a2.056 2.056 0 0 1-.884.182 3.112 3.112 0 0 1-.698-.086 1.67 1.67 0 0 1-.537-.216.192.192 0 0 1-.08-.156l-.05-1.224a.035.035 0 0 1 .04-.035.04.04 0 0 1 .05 0c.146.393.349.763.602 1.097a1.08 1.08 0 0 0 .874.423.894.894 0 0 0 .578-.186.77.77 0 0 0 .231-.634 1.178 1.178 0 0 0-.156-.62 1.632 1.632 0 0 0-.387-.443c-.15-.115-.361-.261-.622-.433a8.4 8.4 0 0 1-.603-.422 1.66 1.66 0 0 1-.367-.424 1.15 1.15 0 0 1-.15-.594 1.084 1.084 0 0 1 .23-.704c.16-.198.37-.348.608-.433a2.14 2.14 0 0 1 .779-.141c.183.001.366.018.547.05.157.027.31.073.457.136a.155.155 0 0 1 .095.06.174.174 0 0 1 0 .091l.026 1.098-.046.035c-.045.035-.045 0-.05 0a3.65 3.65 0 0 0-.432-.891.904.904 0 0 0-.803-.398.789.789 0 0 0-.578.211.763.763 0 0 0-.211.569c0 .186.054.368.156.524ZM104.522 28.01c-.247.253-.421.57-.502.915h-.09c0-.211.045-.503.07-.81.025-.307.04-.574.04-.74 0-.03 0-.04.045-.04.046 0 .046 0 .046.04 0 .116.15.176.447.176h3.168c.15.004.3-.01.447-.04a.263.263 0 0 0 .186-.177.039.039 0 0 1 .024-.02.043.043 0 0 1 .016 0c.025 0 .04 0 .04.036 0 .167-.015.42-.045.755 0 .337-.025.609-.025.82h-.095a1.516 1.516 0 0 0-.377-.91 1.284 1.284 0 0 0-1.14-.258.248.248 0 0 0-.141.14c-.028.105-.04.212-.035.319v3.71c-.006.123.009.245.045.363a.275.275 0 0 0 .191.15c.152.032.307.045.462.04v.097h-2.159v-.096c.155.004.31-.01.462-.04a.29.29 0 0 0 .201-.156.907.907 0 0 0 .055-.358V28.2a.912.912 0 0 0-.04-.307.276.276 0 0 0-.146-.136 1 1 0 0 0-.321-.04 1.126 1.126 0 0 0-.829.292ZM114.757 32.52c0 .03 0 .045-.04.045h-1.904s-.03 0-.03-.045c0-.046 0-.05.03-.05a.825.825 0 0 0 .342-.051.183.183 0 0 0 .083-.07.186.186 0 0 0 .027-.106 1.167 1.167 0 0 0-.09-.408l-.869-1.762h-1.451l-.618 1.39a1.09 1.09 0 0 0-.105.437.495.495 0 0 0 .2.423.96.96 0 0 0 .563.146c.025 0 .04 0 .04.05s0 .046-.04.046H109.017c-.025 0-.04 0-.04-.045 0-.046 0-.05.04-.05a.72.72 0 0 0 .376-.091.876.876 0 0 0 .297-.318c.13-.218.246-.445.346-.68l1.723-3.891a.094.094 0 0 1 .075-.025.069.069 0 0 1 .065.025l1.964 3.972c.123.283.28.55.467.796a.543.543 0 0 0 .407.211c.005 0 .02.015.02.05Zm-3.837-2.649h1.25l-.667-1.349-.583 1.35ZM119.631 27.868a.656.656 0 0 0-.542-.232v-.095h1.657v.095a.562.562 0 0 0-.502.232 1.074 1.074 0 0 0-.171.654v2.251c.009.352-.076.7-.246 1.007a1.658 1.658 0 0 1-.688.664 2.198 2.198 0 0 1-1.035.237 2.303 2.303 0 0 1-1.039-.231 1.669 1.669 0 0 1-.713-.66 1.97 1.97 0 0 1-.251-1.007V28.19a.88.88 0 0 0-.051-.352.274.274 0 0 0-.067-.098.272.272 0 0 0-.103-.058 1.202 1.202 0 0 0-.387-.046s-.025 0-.025-.05 0-.045.025-.045h1.978s.026 0 .026.045 0 .05-.026.05c-.13-.006-.261.01-.386.046a.317.317 0 0 0-.176.166 1.055 1.055 0 0 0-.045.357v2.296a2.162 2.162 0 0 0 .397 1.425 1.358 1.358 0 0 0 1.109.473 1.376 1.376 0 0 0 1.07-.423c.274-.335.41-.761.382-1.193v-2.26a1.014 1.014 0 0 0-.191-.655ZM127.297 32.52c0 .03 0 .045-.025.045h-1.291c-.121 0-.352-.221-.683-.67a23.96 23.96 0 0 1-1.225-1.877 1.546 1.546 0 0 1-.267 0h-.416V31.9c-.006.122.009.245.045.362a.242.242 0 0 0 .171.151c.129.032.263.046.396.04v.096H122.004s-.025 0-.025-.045 0-.05.025-.05c.133.004.266-.01.396-.04a.266.266 0 0 0 .171-.157.924.924 0 0 0 .05-.357v-3.726a1.001 1.001 0 0 0-.045-.352.268.268 0 0 0-.171-.156 1.27 1.27 0 0 0-.396-.046v-.095h2.018c.386-.026.769.067 1.1.267a.854.854 0 0 1 .387.745 1.26 1.26 0 0 1-.226.715c-.145.219-.337.403-.563.538.442.675.809 1.203 1.105 1.591.226.31.491.59.789.83.191.157.427.247.673.258 0 0 .005.015.005.05Zm-3.44-2.699a.857.857 0 0 0 .673-.221c.154-.231.223-.509.195-.786a1.396 1.396 0 0 0-.215-.9.746.746 0 0 0-.608-.258.543.543 0 0 0-.397.116.601.601 0 0 0-.11.423v1.627c.153.011.308.011.462 0ZM133.761 32.52c0 .03 0 .045-.04.045H131.818s-.031 0-.031-.045c0-.046 0-.05.031-.05a.839.839 0 0 0 .341-.051.183.183 0 0 0 .106-.176 1.176 1.176 0 0 0-.136-.408l-.864-1.762h-1.456l-.618 1.39a1.183 1.183 0 0 0-.1.438.507.507 0 0 0 .201.422.942.942 0 0 0 .557.146c.03 0 .04 0 .04.05 0 .051 0 .046-.04.046h-1.843c-.03 0-.04 0-.04-.045 0-.046 0-.05.04-.05a.751.751 0 0 0 .377-.091.874.874 0 0 0 .296-.317c.13-.22.246-.446.346-.68l1.723-3.892a.086.086 0 0 1 .07-.025c.04 0 .06 0 .066.025l1.968 3.972c.124.283.281.55.467.796a.542.542 0 0 0 .407.211c.005 0 .035.015.035.05Zm-3.837-2.649h1.266l-.663-1.349-.603 1.35ZM140.29 27.586v.05a.586.586 0 0 0-.502.227c-.128.195-.19.426-.176.66v4.158l-.04.03a.06.06 0 0 1-.055 0l-3.767-4.38v3.273c-.013.229.047.456.171.65a.579.579 0 0 0 .502.226v.095h-1.657v-.095a.66.66 0 0 0 .538-.227c.134-.188.2-.418.185-.65V28.08a1.684 1.684 0 0 0-.401-.337.779.779 0 0 0-.377-.096v-.095H136.062a.135.135 0 0 1 .095.03.86.86 0 0 1 .096.13c.09.122.16.207.2.258l2.883 3.408v-2.855a1.082 1.082 0 0 0-.171-.66.558.558 0 0 0-.502-.226v-.095H140.205s.085.015.085.045ZM142.069 28.01c-.247.253-.421.57-.502.915h-.09c0-.211.045-.503.07-.81.025-.307.04-.574.04-.74 0-.03 0-.04.045-.04s.045 0 .045.04c0 .116.151.176.447.176h3.189c.15.004.3-.01.447-.04a.27.27 0 0 0 .181-.161.04.04 0 0 1 .005-.016.039.039 0 0 1 .024-.02.043.043 0 0 1 .016 0c.025 0 .04 0 .04.036 0 .167-.015.42-.045.755 0 .337-.025.609-.025.82h-.095a1.516 1.516 0 0 0-.377-.91 1.284 1.284 0 0 0-1.14-.258.23.23 0 0 0-.141.141 1.03 1.03 0 0 0-.04.317v3.711c-.005.123.012.246.05.363a.273.273 0 0 0 .077.099.269.269 0 0 0 .114.052c.152.03.307.044.462.04v.096h-2.194v-.096c.155.004.31-.01.462-.04a.296.296 0 0 0 .201-.156.926.926 0 0 0 .055-.358V28.2a.912.912 0 0 0-.04-.307.276.276 0 0 0-.146-.136 1 1 0 0 0-.321-.04 1.13 1.13 0 0 0-.814.292Z" fill="#fff"/><path d="M24.67 17.41c.031-.496.095-.99.19-1.477.08-.417.181-.83.305-1.235a7.473 7.473 0 0 1 2.994-4.262 7.448 7.448 0 0 1 3.457-1.27h.143A7.384 7.384 0 0 0 36.3 7.02c.244-.247.469-.511.676-.79a19.62 19.62 0 0 1-2.09 4.89c-.246.41-.46.736-.71 1.097a19.706 19.706 0 0 1-3.742 4 11.842 11.842 0 0 0 2.974-.934 11.846 11.846 0 0 1-6.636 3.281c-.256.039-.513.068-.772.088a7.495 7.495 0 0 1 2.173-5.496c.282-.281.585-.54.908-.774a7.448 7.448 0 0 0-4.155 4.234c-.099.26-.184.525-.256.794ZM6.528 37.395a7.384 7.384 0 0 1 5.215-2.923h.143a7.448 7.448 0 0 0 3.46-1.272 7.472 7.472 0 0 0 2.43-2.777c.24-.473.43-.97.564-1.483.124-.406.226-.818.305-1.236.096-.49.16-.986.192-1.486-.07.262-.154.52-.253.771a7.448 7.448 0 0 1-4.155 4.234c.322-.234.626-.492.908-.774a7.48 7.48 0 0 0 2.176-5.482 11.869 11.869 0 0 0-7.405 3.378 11.844 11.844 0 0 1 2.962-.956 19.794 19.794 0 0 0-3.743 4.013c-.25.36-.487.725-.71 1.096-.224.37-.477.829-.691 1.251a19.618 19.618 0 0 0-1.398 3.646ZM6.205 6.552a7.419 7.419 0 0 1 2.916 5.229V11.92a7.491 7.491 0 0 0 1.27 3.467 7.466 7.466 0 0 0 2.77 2.435c.474.241.972.431 1.486.565.405.125.816.227 1.233.306.489.096.984.16 1.482.192a6.978 6.978 0 0 1-1.388-.517 7.451 7.451 0 0 1-3.626-3.902 7.457 7.457 0 0 0 6.256 3.092c-.02-.26-.049-.517-.087-.774a11.9 11.9 0 0 0-3.273-6.65c.446.944.767 1.942.954 2.97a19.569 19.569 0 0 0-1.395-1.555 19.472 19.472 0 0 0-2.595-2.198c-.36-.25-.723-.488-1.093-.712a19.508 19.508 0 0 0-4.878-2.094l-.032.006Zm21.082 19.836a7.443 7.443 0 0 0-2.384-.326 11.922 11.922 0 0 0 3.37 7.43 11.921 11.921 0 0 1-.954-2.968c.438.543.903 1.063 1.395 1.557.8.805 1.668 1.54 2.594 2.195.36.25.724.488 1.093.712.37.225.827.478 1.25.693a19.508 19.508 0 0 0 3.648 1.388 7.594 7.594 0 0 1-.775-.68 7.418 7.418 0 0 1-2.14-4.552V31.697a7.491 7.491 0 0 0-1.27-3.466 7.466 7.466 0 0 0-2.769-2.435 7.345 7.345 0 0 0-1.479-.566 11.551 11.551 0 0 0-1.232-.306 11.41 11.41 0 0 0-1.483-.192 6.905 6.905 0 0 1 1.388.517 7.452 7.452 0 0 1 3.627 3.902 7.398 7.398 0 0 0-3.88-2.767v.004ZM0 22.033c.34-.045.682-.068 1.025-.068a7.397 7.397 0 0 1 4.726 1.698 7.451 7.451 0 0 0 7.09 1.398 7.413 7.413 0 0 0 1.453-.65c.373-.202.736-.42 1.086-.65.413-.282.808-.589 1.184-.918a7.693 7.693 0 0 1-1.35.621 7.442 7.442 0 0 1-5.29-.182 7.393 7.393 0 0 0 4.69-.784 7.522 7.522 0 0 0 1.927-1.466c-.198-.17-.399-.325-.606-.485a11.85 11.85 0 0 0-7.025-2.37 11.72 11.72 0 0 1 2.766 1.421 19.46 19.46 0 0 0-8.121.852A19.16 19.16 0 0 0 0 22.034Zm27.656-1.648a7.443 7.443 0 0 1 5.926-.049 7.393 7.393 0 0 0-4.69.8 7.522 7.522 0 0 0-1.91 1.467 11.851 11.851 0 0 0 7.616 2.855 11.722 11.722 0 0 1-2.767-1.421c.691.073 1.386.11 2.082.11a19.442 19.442 0 0 0 4.66-.585 19.292 19.292 0 0 0 4.94-1.977 7.396 7.396 0 0 1-5.75-1.63 7.452 7.452 0 0 0-7.123-1.421c-.505.166-.99.384-1.45.651-.373.202-.736.42-1.086.65-.413.286-.808.597-1.184.93.239-.14.484-.266.736-.38Zm-8.108 11.527a19.593 19.593 0 0 0 .85 8.136 19.393 19.393 0 0 0 1.58 3.577 7.693 7.693 0 0 1-.069-1.028 7.438 7.438 0 0 1 1.693-4.737 7.488 7.488 0 0 0 .746-8.568 14.605 14.605 0 0 0-.649-1.09c-.277-.422-.579-.827-.905-1.213.14.24.267.488.38.741a7.497 7.497 0 0 1 .049 5.94c.062-.392.094-.79.094-1.189a7.442 7.442 0 0 0-2.339-5.427 11.921 11.921 0 0 0-2.848 7.635c.348-.984.824-1.918 1.418-2.777ZM21.53 0c.046.34.07.684.07 1.028a7.438 7.438 0 0 1-1.695 4.737 7.488 7.488 0 0 0-.769 8.591c.201.374.418.738.649 1.09.28.413.586.81.914 1.187a7.671 7.671 0 0 1-.62-1.353 7.497 7.497 0 0 1 .192-5.33 7.59 7.59 0 0 0-.094 1.19 7.442 7.442 0 0 0 .905 3.512 7.54 7.54 0 0 0 1.447 1.932 11.92 11.92 0 0 0 2.848-7.635 11.771 11.771 0 0 1-1.418 2.757c.073-.693.11-1.39.11-2.087 0-1.14-.098-2.279-.295-3.402a19.976 19.976 0 0 0-.665-2.653A19.264 19.264 0 0 0 21.53 0Z" fill="url(#a)"/><defs><linearGradient id="a" x1="21.753" y1=".338" x2="21.753" y2="43.956" gradientUnits="userSpaceOnUse"><stop stop-color="#EE4224"/><stop offset=".05" stop-color="#E94925"/><stop offset=".29" stop-color="#D36528"/><stop offset=".53" stop-color="#C47A2B"/><stop offset=".77" stop-color="#BB862C"/><stop offset="1" stop-color="#B88A2D"/></linearGradient></defs></svg>