<svg width="180" height="44" fill="none" xmlns="http://www.w3.org/2000/svg"><path d="M55.222 13.61c.172.263.386.496.633.69.256.196.593.432 1.005.714.387.242.76.504 1.12.786.285.228.526.506.713.82.198.337.299.722.29 1.113a2.23 2.23 0 0 1-.391 1.3c-.274.388-.65.695-1.085.885a3.652 3.652 0 0 1-1.541.312 5.335 5.335 0 0 1-1.316-.17 2.402 2.402 0 0 1-.924-.388.349.349 0 0 1-.106-.106.263.263 0 0 1-.035-.161l-.045-2.23c0-.036.025-.056.07-.061.046-.005.076 0 .086.045.28.574.527 1.037.733 1.39.211.357.481.675.798.941.305.266.696.411 1.1.408.334.013.662-.094.924-.302a1.275 1.275 0 0 0 .362-1.007 2.079 2.079 0 0 0-.271-1.077 2.903 2.903 0 0 0-.663-.79 14.478 14.478 0 0 0-1.08-.771c-.362-.228-.71-.477-1.044-.745a2.92 2.92 0 0 1-.633-.74 1.907 1.907 0 0 1-.266-1.007 1.886 1.886 0 0 1 .426-1.254 2.51 2.51 0 0 1 1.095-.76 4.161 4.161 0 0 1 1.416-.242c.337 0 .673.03 1.005.09.276.044.547.116.808.217a.362.362 0 0 1 .171.121.309.309 0 0 1 .04.161v2.06c0 .03 0 .05-.07.065s-.075 0-.08 0l-.116-.267a6.205 6.205 0 0 0-.819-1.51 1.548 1.548 0 0 0-1.305-.62c-.336-.014-.665.101-.92.323a1.209 1.209 0 0 0-.356.941c.01.295.105.582.271.826ZM67.38 11.899a1.156 1.156 0 0 0-.959-.433s-.025-.03-.025-.086c0-.055 0-.086.025-.086h.673c.357 0 .638.03.854.03.216 0 .431 0 .768-.03h.648s.025.03.025.086c0 .055 0 .086-.025.086a1.002 1.002 0 0 0-.854.433 2.018 2.018 0 0 0-.311 1.193v3.902a3.37 3.37 0 0 1-.432 1.722 2.905 2.905 0 0 1-1.225 1.147 4.01 4.01 0 0 1-1.828.398 4.11 4.11 0 0 1-1.833-.392 2.955 2.955 0 0 1-1.25-1.123 3.344 3.344 0 0 1-.458-1.762v-4.532c.01-.209-.016-.418-.075-.619a.458.458 0 0 0-.281-.272 1.964 1.964 0 0 0-.638-.075c-.025 0-.04-.03-.04-.086 0-.055 0-.085.04-.085h.743c.432 0 .768.03 1.004.03s.633 0 1.06-.03h.718c.025 0 .04.03.04.085 0 .056 0 .086-.04.086a1.678 1.678 0 0 0-.638.085.503.503 0 0 0-.28.287c-.06.203-.086.414-.076.625v4.027c-.07.874.162 1.745.658 2.467a2.264 2.264 0 0 0 1.858.8 2.37 2.37 0 0 0 1.823-.709 2.88 2.88 0 0 0 .658-2.014v-3.962a1.872 1.872 0 0 0-.327-1.193ZM79.716 11.38c0 .054 0 .085-.03.085a1.002 1.002 0 0 0-.88.443 1.957 1.957 0 0 0-.326 1.183v7.164s0 .046-.06.056a.085.085 0 0 1-.09 0l-6.564-7.487v5.458c-.024.415.084.827.306 1.178a1.005 1.005 0 0 0 .854.438s.03.025.03.08c0 .056 0 .086-.03.086H70.013c-.025 0-.04-.03-.04-.086 0-.055 0-.08.04-.08a1.188 1.188 0 0 0 .975-.438c.255-.338.382-.755.356-1.178v-5.936a3.66 3.66 0 0 0-.788-.695 1.354 1.354 0 0 0-.678-.186s-.03-.03-.03-.086c0-.055 0-.085.03-.085h2.681a.25.25 0 0 1 .171.055l.196.242c.156.216.266.357.331.433l4.847 5.598v-4.531a2.018 2.018 0 0 0-.312-1.193 1.006 1.006 0 0 0-.853-.433s-.026-.03-.026-.086c0-.055 0-.085.026-.085h.602c.301 0 .553.03.758.03.206 0 .447 0 .784-.03h.627s.006.03.006.085ZM82.541 13.61c.174.263.389.497.638.69.251.196.593.433 1.004.715.388.24.761.503 1.12.785.3.224.555.503.754.82.2.337.302.722.296 1.113a2.23 2.23 0 0 1-.392 1.3c-.274.388-.65.695-1.085.885a3.678 3.678 0 0 1-1.546.313 5.335 5.335 0 0 1-1.316-.172 2.4 2.4 0 0 1-.924-.387.502.502 0 0 1-.106-.106.262.262 0 0 1-.035-.161l-.04-2.23c0-.036 0-.056.07-.061.07-.005.07 0 .08.045.282.574.528 1.038.739 1.39.208.358.476.676.793.941.306.265.697.41 1.1.408.334.013.662-.094.924-.302a1.279 1.279 0 0 0 .367-1.007 2.084 2.084 0 0 0-.276-1.077 2.904 2.904 0 0 0-.658-.831 14.478 14.478 0 0 0-1.08-.77 10.424 10.424 0 0 1-1.04-.745 2.839 2.839 0 0 1-.637-.74 1.952 1.952 0 0 1-.266-1.007 1.886 1.886 0 0 1 .426-1.254 2.567 2.567 0 0 1 1.09-.78c.453-.162.93-.244 1.411-.242.337 0 .673.03 1.005.09.278.044.55.117.813.217a.346.346 0 0 1 .166.12c.03.049.044.105.04.162v2.06c0 .03 0 .05-.065.065s-.075 0-.085 0l-.116-.267a6.047 6.047 0 0 0-.819-1.51 1.548 1.548 0 0 0-1.305-.62 1.324 1.324 0 0 0-.92.322 1.209 1.209 0 0 0-.376.922c-.011.32.077.637.251.906ZM94.06 17.804a.136.136 0 0 1 .076 0s.035 0 .035.03c-.088.668-.135 1.34-.14 2.014a.232.232 0 0 1-.04.162.21.21 0 0 1-.166.05h-6.187c-.03 0-.045-.03-.045-.086 0-.055 0-.08.045-.08.218.008.436-.015.648-.07a.44.44 0 0 0 .276-.278 2.1 2.1 0 0 0 .07-.624v-6.49a2.067 2.067 0 0 0-.07-.619.445.445 0 0 0-.281-.272 2.047 2.047 0 0 0-.643-.075c-.03 0-.045-.03-.045-.086 0-.055 0-.086.045-.086h5.95c.096 0 .142.046.142.126l.03 1.868s-.026.035-.08.04c-.056.006-.081 0-.091-.025a2.14 2.14 0 0 0-.753-1.208 2.31 2.31 0 0 0-1.401-.393h-.417a.887.887 0 0 0-.618.181.745.745 0 0 0-.196.564v2.86h1.16c.433.027.865-.069 1.246-.277a.89.89 0 0 0 .436-.785c0-.03.026-.045.076-.045s.075.015.075.045V16.178c0 .317.03.569.03.76 0 0-.03.026-.085.026-.055 0-.085 0-.085-.026a1.066 1.066 0 0 0-.437-.906 2.09 2.09 0 0 0-1.291-.307h-1.145v3.172a.953.953 0 0 0 .156.604.583.583 0 0 0 .502.196h.462c.609.027 1.212-.129 1.733-.448.469-.34.81-.83.969-1.39 0 0 .015-.055.055-.055ZM95.503 13.79c0 .031-.04.041-.085.036-.045-.005-.07 0-.07-.045.04-.378.08-.861.125-1.455.045-.594.07-1.037.07-1.34 0-.045.026-.07.08-.07.056 0 .076 0 .076.07 0 .207.266.308.799.308.803.03 1.737.045 2.812.045.547 0 1.135 0 1.748-.03h.954c.259.011.52-.013.773-.07a.416.416 0 0 0 .316-.277c0-.04.041-.056.091-.056.05 0 .075 0 .075.055-.025.277-.055.73-.09 1.345a26.363 26.363 0 0 0-.045 1.51s-.026.04-.071.04-.075 0-.085-.04a2.93 2.93 0 0 0-.784-1.621 1.97 1.97 0 0 0-1.416-.544.662.662 0 0 0-.537.176 1.187 1.187 0 0 0-.131.67v6.43c-.012.214.016.429.081.634a.503.503 0 0 0 .321.267c.249.055.504.079.758.07.031 0 .041.025.041.08 0 .056 0 .086-.041.086h-3.902c-.03 0-.045-.03-.045-.085 0-.056 0-.081.045-.081.252.008.503-.016.749-.07a.5.5 0 0 0 .331-.277c.076-.2.108-.412.096-.625v-6.494a1.18 1.18 0 0 0-.126-.645.644.644 0 0 0-.502-.171c-1.122 0-1.925.725-2.41 2.175ZM109.752 13.61c.174.263.389.497.638.69.251.196.593.433 1.004.714.388.242.762.504 1.12.786.286.228.527.506.713.82.201.336.303.722.297 1.113.007.464-.13.918-.392 1.3a2.6 2.6 0 0 1-1.085.885 3.674 3.674 0 0 1-1.546.313 5.339 5.339 0 0 1-1.316-.172 2.443 2.443 0 0 1-.924-.387.518.518 0 0 1-.106-.106.31.31 0 0 1-.035-.161l-.04-2.23c0-.036 0-.056.07-.061.071-.005.076 0 .081.045.281.574.527 1.038.738 1.39.211.357.481.675.798.941.304.265.693.41 1.095.408a1.39 1.39 0 0 0 .924-.302 1.271 1.271 0 0 0 .367-1.007 2.025 2.025 0 0 0-.276-1.077 2.908 2.908 0 0 0-.663-.79 14.443 14.443 0 0 0-1.08-.771 10.354 10.354 0 0 1-1.039-.745 2.924 2.924 0 0 1-.638-.74 1.936 1.936 0 0 1-.266-1.007 1.885 1.885 0 0 1 .426-1.254 2.572 2.572 0 0 1 1.1-.76c.46-.187.95-.29 1.446-.302.337 0 .673.03 1.005.09.278.044.55.117.813.217a.32.32 0 0 1 .166.12.263.263 0 0 1 .045.162v2.06c0 .03-.025.05-.07.065-.045.015-.075 0-.085 0l-.111-.267a6.38 6.38 0 0 0-.818-1.51 1.56 1.56 0 0 0-1.311-.62c-.335-.015-.662.1-.914.322a1.207 1.207 0 0 0-.362.942c-.01.311.07.62.231.886ZM117.072 19.622a4.203 4.203 0 0 1-1.567-1.657 4.796 4.796 0 0 1-.552-2.275 4.188 4.188 0 0 1 .733-2.482 4.582 4.582 0 0 1 1.868-1.551 5.555 5.555 0 0 1 2.33-.504 4.34 4.34 0 0 1 2.33.614 4.212 4.212 0 0 1 1.542 1.647c.358.669.544 1.416.542 2.175a4.302 4.302 0 0 1-.673 2.341 4.823 4.823 0 0 1-1.798 1.687 5.009 5.009 0 0 1-2.435.64 4.41 4.41 0 0 1-2.32-.635Zm4.188-.197c.438-.344.769-.807.954-1.334.251-.669.37-1.38.352-2.094a6.414 6.414 0 0 0-.352-2.286 3.586 3.586 0 0 0-1.135-1.591 2.74 2.74 0 0 0-1.732-.574 2.264 2.264 0 0 0-1.959.962 4.548 4.548 0 0 0-.698 2.658c-.014.83.125 1.657.412 2.437.23.646.62 1.224 1.135 1.676a2.475 2.475 0 0 0 1.632.605c.501.002.989-.159 1.391-.459ZM133.621 19.979c0 .055 0 .085-.045.085h-2.115c-.08 0-.246-.191-.502-.574a15.845 15.845 0 0 1-.848-1.586 18.969 18.969 0 0 1-.929-2.23 2.062 2.062 0 0 1-.292 0h-.868v3.252c-.011.215.015.43.075.635a.459.459 0 0 0 .296.267c.235.056.477.08.718.07 0 0 .03.025.03.08 0 .056 0 .086-.03.086h-3.55c-.03 0-.045-.03-.045-.085 0-.056 0-.08.045-.08.218.008.436-.016.648-.071a.457.457 0 0 0 .281-.277 1.91 1.91 0 0 0 .075-.625v-6.494a1.904 1.904 0 0 0-.07-.62.436.436 0 0 0-.276-.271 2.065 2.065 0 0 0-.648-.076s-.025-.03-.025-.086c0-.055 0-.085.025-.085h.743c.427 0 .768.03 1.004.03.237 0 .573 0 .899-.045l.397-.025h.583c.7-.044 1.399.119 2.008.468a1.506 1.506 0 0 1 .708 1.314c-.005.469-.16.924-.441 1.299a3.297 3.297 0 0 1-1.125.971 21.716 21.716 0 0 0 1.908 3.525c.502.705.959 1.062 1.321 1.062.03.005.045.03.045.086Zm-4.675-4.657c.274.013.548-.04.798-.156a.901.901 0 0 0 .427-.504c.098-.347.142-.707.13-1.067a2.691 2.691 0 0 0-.336-1.586 1.139 1.139 0 0 0-.964-.433 1.056 1.056 0 0 0-.748.206.95.95 0 0 0-.179.33c-.037.122-.05.249-.037.375v2.804c.301.033.605.043.909.03ZM143.39 19.979c0 .055 0 .085-.03.085h-2.511c-.206 0-.588-.387-1.145-1.158a35.347 35.347 0 0 1-2.009-3.232 2.646 2.646 0 0 1-.326 0h-.769v3.252a2.09 2.09 0 0 0 .071.635.432.432 0 0 0 .271.267c.213.055.433.079.653.07 0 0 .03.025.03.08 0 .056 0 .086-.03.086h-3.556s-.04-.03-.04-.085c0-.056 0-.08.04-.08.22.008.44-.016.653-.071a.45.45 0 0 0 .281-.277 1.91 1.91 0 0 0 .076-.625v-6.494a2.054 2.054 0 0 0-.071-.62.429.429 0 0 0-.281-.271 2.007 2.007 0 0 0-.643-.076s-.025-.03-.025-.086c0-.055 0-.085.025-.085h.743c.427 0 .769.03 1.005.03.236 0 .572 0 .899-.045l.397-.025h.582a3.595 3.595 0 0 1 2.009.468 1.511 1.511 0 0 1 .708 1.314 2.202 2.202 0 0 1-.392 1.233 3.063 3.063 0 0 1-1.004.957c.75 1.178 1.377 2.1 1.883 2.764.388.54.844 1.027 1.356 1.45.324.276.73.437 1.155.458 0 0-.005.025-.005.08Zm-5.976-4.657c.275.013.549-.04.798-.156a.898.898 0 0 0 .427-.504c.099-.347.143-.707.131-1.067a2.692 2.692 0 0 0-.337-1.586 1.135 1.135 0 0 0-.964-.433.888.888 0 0 0-.673.206 1.01 1.01 0 0 0-.196.705v2.804c.27.031.542.041.814.03ZM150.22 17.804a.149.149 0 0 1 .075 0c.025 0 .035 0 .035.03-.09.668-.137 1.34-.14 2.014a.268.268 0 0 1-.04.162.22.22 0 0 1-.171.05h-6.172c-.03 0-.045-.03-.045-.086 0-.055 0-.08.045-.08.218.008.436-.015.648-.07a.421.421 0 0 0 .271-.278c.057-.203.081-.413.07-.624v-6.49a1.905 1.905 0 0 0-.07-.619.435.435 0 0 0-.276-.272 2.048 2.048 0 0 0-.643-.075c-.03 0-.045-.03-.045-.086 0-.055 0-.086.045-.086h5.931c.095 0 .14.046.14.126l.025 1.868s-.025.035-.075.04c-.05.006-.08 0-.09-.025a2.167 2.167 0 0 0-.754-1.208 2.31 2.31 0 0 0-1.411-.398h-.422a.88.88 0 0 0-.612.182.744.744 0 0 0-.196.563v2.86h1.16c.433.027.864-.07 1.245-.277a.882.882 0 0 0 .432-.785c0-.03.025-.046.081-.046.055 0 .075 0 .075.046v1.933c0 .317.03.569.03.76 0 0-.03.026-.085.026-.056 0-.086 0-.086-.026a1.056 1.056 0 0 0-.442-.906 2.056 2.056 0 0 0-1.265-.332h-1.145v3.172c-.015.212.038.423.151.604a.59.59 0 0 0 .502.196h.462a3.056 3.056 0 0 0 1.747-.448c.468-.342.808-.831.965-1.39 0 0 .01-.025.05-.025ZM161.094 11.38c0 .054 0 .085-.031.085a1.002 1.002 0 0 0-.878.443c-.232.35-.345.764-.322 1.183v7.164s-.025.046-.065.056a.09.09 0 0 1-.091 0l-6.563-7.487v5.458a1.99 1.99 0 0 0 .306 1.178 1.01 1.01 0 0 0 .854.438s.03.025.03.08c0 .056 0 .086-.03.086H151.396c-.03 0-.045-.03-.045-.086 0-.055 0-.08.045-.08a1.186 1.186 0 0 0 .97-.438 1.78 1.78 0 0 0 .356-1.178v-5.936a3.565 3.565 0 0 0-.788-.695 1.356 1.356 0 0 0-.678-.186s-.03-.03-.03-.086c0-.055 0-.085.03-.085h2.656a.25.25 0 0 1 .171.055l.196.242c.156.216.271.357.336.433l4.841 5.598v-4.531a2.01 2.01 0 0 0-.311-1.193 1.004 1.004 0 0 0-.854-.433V11.294h.603c.301 0 .552.03.758.03.206 0 .447 0 .784-.03h.627s.031.03.031.085ZM161.946 13.79c0 .031-.04.041-.086.036-.045-.005-.07 0-.07-.045.035-.378.08-.861.126-1.455.045-.594.07-1.037.07-1.34 0-.045.025-.07.075-.07.05 0 .081 0 .081.07 0 .207.266.308.798.308.799.03 1.738.045 2.812.045.549 0 1.132-.01 1.748-.03h.949c.261.011.523-.012.778-.07a.417.417 0 0 0 .317-.278c0-.04.04-.055.09-.055.05 0 .075 0 .075.055-.025.277-.055.73-.09 1.345a27.05 27.05 0 0 0-.05 1.51s0 .04-.07.04c-.071 0-.071 0-.081-.04a2.922 2.922 0 0 0-.783-1.621 1.98 1.98 0 0 0-1.416-.544.654.654 0 0 0-.538.176 1.187 1.187 0 0 0-.13.67v6.43c-.012.214.015.429.08.634a.493.493 0 0 0 .321.267c.249.055.504.079.759.07 0 0 .04.025.04.08 0 .056 0 .086-.04.086h-3.907c-.025 0-.04-.03-.04-.085 0-.056 0-.081.04-.081.251.008.503-.016.748-.07a.502.502 0 0 0 .337-.277c.07-.2.101-.413.09-.625v-6.494a1.143 1.143 0 0 0-.126-.645.62.62 0 0 0-.502-.171c-1.118 0-1.92.725-2.405 2.175ZM172.782 19.622a4.15 4.15 0 0 1-1.567-1.657 4.758 4.758 0 0 1-.552-2.276 4.162 4.162 0 0 1 .728-2.482 4.52 4.52 0 0 1 1.868-1.55 5.546 5.546 0 0 1 2.33-.504 4.337 4.337 0 0 1 2.336.624c.65.397 1.18.962 1.536 1.637.354.67.539 1.417.538 2.175a4.273 4.273 0 0 1-.673 2.34 4.795 4.795 0 0 1-1.798 1.688 4.967 4.967 0 0 1-2.431.639 4.391 4.391 0 0 1-2.315-.634Zm4.183-.197c.452-.34.795-.803.99-1.334.246-.67.363-1.38.346-2.095a6.41 6.41 0 0 0-.391-2.31 3.616 3.616 0 0 0-1.13-1.591 2.765 2.765 0 0 0-1.738-.574 2.258 2.258 0 0 0-1.958.961 4.53 4.53 0 0 0-.683 2.684c-.015.83.125 1.657.411 2.437a4.03 4.03 0 0 0 1.125 1.676 2.478 2.478 0 0 0 1.632.604c.498 0 .982-.16 1.381-.458h.015ZM92.87 32.52v.045h-1.29c-.126 0-.352-.221-.688-.67-.337-.447-.743-1.072-1.22-1.877a1.578 1.578 0 0 1-.266 0h-.417V31.9c-.006.122.009.245.045.362a.241.241 0 0 0 .166.151c.13.031.263.045.396.04v.096h-2.033v-.095a1.44 1.44 0 0 0 .396-.04.272.272 0 0 0 .176-.157c.035-.115.05-.236.045-.357v-3.726a1.18 1.18 0 0 0-.04-.352.277.277 0 0 0-.176-.156 1.257 1.257 0 0 0-.391-.046v-.095H89.59c.384-.025.766.068 1.095.267a.84.84 0 0 1 .387.745c-.001.256-.08.505-.226.715a1.695 1.695 0 0 1-.583.548c.437.675.804 1.204 1.1 1.591.228.31.495.589.793.831.19.157.427.247.673.257 0 0 .04.005.04.04Zm-3.444-2.699a.878.878 0 0 0 .677-.221c.153-.236.22-.516.191-.796a1.397 1.397 0 0 0-.216-.9.758.758 0 0 0-.612-.258.55.55 0 0 0-.397.162.631.631 0 0 0-.105.422v1.591c.153.013.308.013.462 0ZM97.53 31.296h.046c-.052.37-.079.744-.08 1.118.01.031.01.064 0 .096a.144.144 0 0 1-.096 0h-3.485v-.096a1.5 1.5 0 0 0 .402-.04.257.257 0 0 0 .166-.156c.035-.116.05-.237.045-.358v-3.726a1.01 1.01 0 0 0-.046-.352.266.266 0 0 0-.17-.156 1.272 1.272 0 0 0-.397-.045v-.096h3.34c.055 0 .08 0 .08.07v1.048h-.095a1.038 1.038 0 0 0-1.115-.917h-.322a.617.617 0 0 0-.406.106.444.444 0 0 0-.121.353v1.64h.768c.588 0 .884-.195.884-.593 0 0 0-.025.045-.025.046 0 .04 0 .04.025v1.551h-.1c0-.459-.296-.69-.899-.69h-.758v1.822a.504.504 0 0 0 .1.373c.101.08.229.117.357.106h.392A1.299 1.299 0 0 0 97.5 31.33s.01-.035.03-.035ZM100.233 28.92c.105.154.236.289.387.398.145.11.346.247.597.403.251.156.502.317.648.443.161.125.297.278.402.453.11.19.166.409.161.63.003.26-.07.515-.211.734-.15.222-.359.396-.603.504a2.054 2.054 0 0 1-.884.181 3.118 3.118 0 0 1-.698-.086 1.672 1.672 0 0 1-.537-.216.192.192 0 0 1-.08-.156l-.05-1.224c0-.005 0-.01.002-.014a.035.035 0 0 1 .01-.012.034.034 0 0 1 .027-.009.04.04 0 0 1 .05 0c.147.393.35.763.603 1.098a1.08 1.08 0 0 0 .874.423.894.894 0 0 0 .578-.187.77.77 0 0 0 .231-.634 1.178 1.178 0 0 0-.156-.62 1.634 1.634 0 0 0-.387-.442c-.15-.116-.361-.262-.622-.433a8.4 8.4 0 0 1-.603-.423 1.658 1.658 0 0 1-.367-.423 1.15 1.15 0 0 1-.15-.594 1.084 1.084 0 0 1 .23-.705c.16-.198.37-.348.608-.433a2.14 2.14 0 0 1 .779-.141c.183.001.366.018.547.05.157.028.31.073.457.136a.155.155 0 0 1 .095.06c.008.03.008.061 0 .091l.026 1.098-.046.035c-.045.035-.045 0-.05 0a3.648 3.648 0 0 0-.432-.891.905.905 0 0 0-.803-.398.79.79 0 0 0-.578.212.762.762 0 0 0-.211.569c0 .186.054.368.156.523ZM104.522 28.01c-.247.253-.421.57-.502.915h-.09c0-.211.045-.503.07-.81.025-.307.04-.574.04-.74 0-.03 0-.04.045-.04.046 0 .046 0 .046.04 0 .116.15.176.447.176h3.168c.15.004.3-.01.447-.04a.263.263 0 0 0 .186-.177.039.039 0 0 1 .024-.02.043.043 0 0 1 .016 0c.025 0 .04 0 .04.036 0 .167-.015.42-.045.755 0 .337-.025.609-.025.82h-.095a1.516 1.516 0 0 0-.377-.91 1.284 1.284 0 0 0-1.14-.258.248.248 0 0 0-.141.14c-.028.105-.04.212-.035.319v3.71c-.006.123.009.245.045.363a.275.275 0 0 0 .191.15c.152.032.307.045.462.04v.097h-2.159v-.096c.155.004.31-.01.462-.04a.29.29 0 0 0 .201-.156.907.907 0 0 0 .055-.358V28.2a.912.912 0 0 0-.04-.307.276.276 0 0 0-.146-.136 1 1 0 0 0-.321-.04 1.126 1.126 0 0 0-.829.292ZM114.757 32.52c0 .03 0 .045-.04.045h-1.904s-.03 0-.03-.045c0-.046 0-.05.03-.05a.825.825 0 0 0 .342-.05.183.183 0 0 0 .083-.072.186.186 0 0 0 .027-.105 1.167 1.167 0 0 0-.09-.408l-.869-1.762h-1.451l-.618 1.39a1.09 1.09 0 0 0-.105.438.494.494 0 0 0 .2.422.96.96 0 0 0 .563.146c.025 0 .04 0 .04.05 0 .051 0 .046-.04.046H109.017c-.025 0-.04 0-.04-.045 0-.046 0-.05.04-.05a.721.721 0 0 0 .376-.091.875.875 0 0 0 .297-.317c.13-.219.246-.446.346-.68l1.723-3.892a.094.094 0 0 1 .075-.025.07.07 0 0 1 .036.004.068.068 0 0 1 .029.021l1.964 3.973c.123.282.28.55.467.795a.542.542 0 0 0 .407.211c.005 0 .02.016.02.05Zm-3.837-2.649h1.25l-.667-1.349-.583 1.35ZM119.631 27.868a.658.658 0 0 0-.542-.231v-.096h1.657v.096a.562.562 0 0 0-.502.231 1.074 1.074 0 0 0-.171.655v2.25c.009.352-.076.7-.246 1.007a1.658 1.658 0 0 1-.688.665 2.2 2.2 0 0 1-1.035.237 2.303 2.303 0 0 1-1.039-.232 1.669 1.669 0 0 1-.713-.66 1.97 1.97 0 0 1-.251-1.006V28.19a.88.88 0 0 0-.051-.353.273.273 0 0 0-.067-.097.272.272 0 0 0-.103-.059 1.202 1.202 0 0 0-.387-.045s-.025 0-.025-.05 0-.046.025-.046h1.978s.026 0 .026.046c0 .045 0 .05-.026.05-.13-.006-.261.009-.386.045a.317.317 0 0 0-.176.166 1.055 1.055 0 0 0-.045.358v2.296a2.162 2.162 0 0 0 .397 1.424 1.358 1.358 0 0 0 1.109.474 1.376 1.376 0 0 0 1.07-.423c.274-.335.41-.762.382-1.194v-2.26a1.014 1.014 0 0 0-.191-.655ZM127.297 32.52c0 .03 0 .046-.025.046h-1.291c-.121 0-.352-.222-.683-.67a23.96 23.96 0 0 1-1.225-1.878 1.546 1.546 0 0 1-.267 0h-.416v1.883c-.006.123.009.245.045.363a.242.242 0 0 0 .171.15c.129.032.263.046.396.04v.096H122.004s-.025 0-.025-.045 0-.05.025-.05c.133.004.266-.01.396-.04a.268.268 0 0 0 .171-.157.924.924 0 0 0 .05-.357v-3.726a1.002 1.002 0 0 0-.045-.352.268.268 0 0 0-.171-.156 1.272 1.272 0 0 0-.396-.046v-.095h2.018c.386-.026.769.067 1.1.267a.856.856 0 0 1 .387.745 1.26 1.26 0 0 1-.226.715c-.145.22-.337.403-.563.538.442.675.809 1.204 1.105 1.591.226.31.491.59.789.831.191.156.427.246.673.257 0 0 .005.015.005.05Zm-3.44-2.698a.856.856 0 0 0 .673-.222c.154-.23.223-.509.195-.785a1.397 1.397 0 0 0-.215-.902.746.746 0 0 0-.608-.256.543.543 0 0 0-.397.116.601.601 0 0 0-.11.422v1.627c.153.011.308.011.462 0ZM133.761 32.52c0 .03 0 .045-.04.045H131.818s-.031 0-.031-.045 0-.05.031-.05a.839.839 0 0 0 .341-.05.183.183 0 0 0 .106-.177 1.176 1.176 0 0 0-.136-.408l-.864-1.762h-1.456l-.618 1.39a1.182 1.182 0 0 0-.1.438.507.507 0 0 0 .201.423.941.941 0 0 0 .557.146c.03 0 .04 0 .04.05s0 .045-.04.045h-1.843c-.03 0-.04 0-.04-.045s0-.05.04-.05a.75.75 0 0 0 .377-.091.873.873 0 0 0 .296-.317c.13-.219.246-.446.346-.68l1.723-3.892a.084.084 0 0 1 .07-.025c.04 0 .06 0 .066.025l1.968 3.973c.124.282.281.55.467.795a.543.543 0 0 0 .407.212c.005 0 .035.015.035.05Zm-3.837-2.648h1.266l-.663-1.35-.603 1.35ZM140.29 27.587v.05a.586.586 0 0 0-.502.226c-.128.195-.19.427-.176.66v4.159l-.04.03a.06.06 0 0 1-.055 0l-3.767-4.38v3.272c-.013.23.047.457.171.65a.578.578 0 0 0 .502.226v.096h-1.657v-.095a.66.66 0 0 0 .538-.227c.134-.189.2-.418.185-.65V28.08a1.685 1.685 0 0 0-.401-.337.779.779 0 0 0-.377-.096v-.096H136.062a.135.135 0 0 1 .095.03.86.86 0 0 1 .096.131c.09.121.16.207.2.257l2.883 3.409v-2.855a1.082 1.082 0 0 0-.171-.66.557.557 0 0 0-.502-.226v-.096H140.205s.085.015.085.046ZM142.069 28.01c-.247.253-.421.57-.502.915h-.09c0-.211.045-.503.07-.81.025-.307.04-.574.04-.74 0-.03 0-.04.045-.04s.045 0 .045.04c0 .116.151.176.447.176h3.189c.15.004.3-.01.447-.04a.27.27 0 0 0 .181-.161.04.04 0 0 1 .005-.016.039.039 0 0 1 .024-.02.043.043 0 0 1 .016 0c.025 0 .04 0 .04.036 0 .167-.015.42-.045.755 0 .337-.025.609-.025.82h-.095a1.516 1.516 0 0 0-.377-.91 1.284 1.284 0 0 0-1.14-.258.23.23 0 0 0-.141.141 1.03 1.03 0 0 0-.04.317v3.711c-.005.123.012.246.05.363a.273.273 0 0 0 .077.099.269.269 0 0 0 .114.052c.152.03.307.044.462.04v.096h-2.194v-.096c.155.004.31-.01.462-.04a.296.296 0 0 0 .201-.156.926.926 0 0 0 .055-.358V28.2a.912.912 0 0 0-.04-.307.276.276 0 0 0-.146-.136 1 1 0 0 0-.321-.04 1.13 1.13 0 0 0-.814.292Z" fill="#fff"/><path d="M24.67 17.41c.031-.496.095-.99.19-1.477.08-.417.181-.83.305-1.235a7.473 7.473 0 0 1 2.994-4.262 7.448 7.448 0 0 1 3.457-1.27h.143A7.384 7.384 0 0 0 36.3 7.02c.244-.247.469-.511.676-.79a19.62 19.62 0 0 1-2.09 4.89c-.246.41-.46.736-.71 1.097a19.706 19.706 0 0 1-3.742 4 11.842 11.842 0 0 0 2.974-.934 11.846 11.846 0 0 1-6.636 3.281c-.256.039-.513.068-.772.088a7.495 7.495 0 0 1 2.173-5.496c.282-.281.585-.54.908-.774a7.448 7.448 0 0 0-4.155 4.234c-.099.26-.184.525-.256.794ZM6.528 37.395a7.384 7.384 0 0 1 5.215-2.923h.143a7.448 7.448 0 0 0 3.46-1.272 7.472 7.472 0 0 0 2.43-2.777c.24-.473.43-.97.564-1.483.124-.406.226-.818.305-1.236.096-.49.16-.986.192-1.486-.07.262-.154.52-.253.771a7.448 7.448 0 0 1-4.155 4.234c.322-.234.626-.492.908-.774a7.48 7.48 0 0 0 2.176-5.482 11.869 11.869 0 0 0-7.405 3.378 11.844 11.844 0 0 1 2.962-.956 19.794 19.794 0 0 0-3.743 4.013c-.25.36-.487.725-.71 1.096-.224.37-.477.829-.691 1.251a19.618 19.618 0 0 0-1.398 3.646ZM6.205 6.552a7.419 7.419 0 0 1 2.916 5.229V11.92a7.491 7.491 0 0 0 1.27 3.467 7.466 7.466 0 0 0 2.77 2.435c.474.241.972.431 1.486.565.405.125.816.227 1.233.306.489.096.984.16 1.482.192a6.978 6.978 0 0 1-1.388-.517 7.451 7.451 0 0 1-3.626-3.902 7.457 7.457 0 0 0 6.256 3.092c-.02-.26-.049-.517-.087-.774a11.9 11.9 0 0 0-3.273-6.65c.446.944.767 1.942.954 2.97a19.569 19.569 0 0 0-1.395-1.555 19.472 19.472 0 0 0-2.595-2.198c-.36-.25-.723-.488-1.093-.712a19.508 19.508 0 0 0-4.878-2.094l-.032.006Zm21.082 19.836a7.443 7.443 0 0 0-2.384-.326 11.922 11.922 0 0 0 3.37 7.43 11.921 11.921 0 0 1-.954-2.968c.438.543.903 1.063 1.395 1.557.8.805 1.668 1.54 2.594 2.195.36.25.724.488 1.093.712.37.225.827.478 1.25.693a19.508 19.508 0 0 0 3.648 1.388 7.594 7.594 0 0 1-.775-.68 7.418 7.418 0 0 1-2.14-4.552V31.697a7.491 7.491 0 0 0-1.27-3.466 7.466 7.466 0 0 0-2.769-2.435 7.345 7.345 0 0 0-1.479-.566 11.551 11.551 0 0 0-1.232-.306 11.41 11.41 0 0 0-1.483-.192 6.905 6.905 0 0 1 1.388.517 7.452 7.452 0 0 1 3.627 3.902 7.398 7.398 0 0 0-3.88-2.767v.004ZM0 22.033c.34-.045.682-.068 1.025-.068a7.397 7.397 0 0 1 4.726 1.698 7.451 7.451 0 0 0 7.09 1.398 7.413 7.413 0 0 0 1.453-.65c.373-.202.736-.42 1.086-.65.413-.282.808-.589 1.184-.918a7.693 7.693 0 0 1-1.35.621 7.442 7.442 0 0 1-5.29-.182 7.393 7.393 0 0 0 4.69-.784 7.522 7.522 0 0 0 1.927-1.466c-.198-.17-.399-.325-.606-.485a11.85 11.85 0 0 0-7.025-2.37 11.72 11.72 0 0 1 2.766 1.421 19.46 19.46 0 0 0-8.121.852A19.16 19.16 0 0 0 0 22.034Zm27.656-1.648a7.443 7.443 0 0 1 5.926-.049 7.393 7.393 0 0 0-4.69.8 7.522 7.522 0 0 0-1.91 1.467 11.851 11.851 0 0 0 7.616 2.855 11.722 11.722 0 0 1-2.767-1.421c.691.073 1.386.11 2.082.11a19.442 19.442 0 0 0 4.66-.585 19.292 19.292 0 0 0 4.94-1.977 7.396 7.396 0 0 1-5.75-1.63 7.452 7.452 0 0 0-7.123-1.421c-.505.166-.99.384-1.45.651-.373.202-.736.42-1.086.65-.413.286-.808.597-1.184.93.239-.14.484-.266.736-.38Zm-8.108 11.527a19.593 19.593 0 0 0 .85 8.136 19.393 19.393 0 0 0 1.58 3.577 7.693 7.693 0 0 1-.069-1.028 7.438 7.438 0 0 1 1.693-4.737 7.488 7.488 0 0 0 .746-8.568 14.605 14.605 0 0 0-.649-1.09c-.277-.422-.579-.827-.905-1.213.14.24.267.488.38.741a7.497 7.497 0 0 1 .049 5.94c.062-.392.094-.79.094-1.189a7.442 7.442 0 0 0-2.339-5.427 11.921 11.921 0 0 0-2.848 7.635c.348-.984.824-1.918 1.418-2.777ZM21.53 0c.046.34.07.684.07 1.028a7.438 7.438 0 0 1-1.695 4.737 7.488 7.488 0 0 0-.769 8.591c.201.374.418.738.649 1.09.28.413.586.81.914 1.187a7.671 7.671 0 0 1-.62-1.353 7.497 7.497 0 0 1 .192-5.33 7.59 7.59 0 0 0-.094 1.19 7.442 7.442 0 0 0 .905 3.512 7.54 7.54 0 0 0 1.447 1.932 11.92 11.92 0 0 0 2.848-7.635 11.771 11.771 0 0 1-1.418 2.757c.073-.693.11-1.39.11-2.087 0-1.14-.098-2.279-.295-3.402a19.976 19.976 0 0 0-.665-2.653A19.264 19.264 0 0 0 21.53 0Z" fill="url(#a)"/><defs><linearGradient id="a" x1="21.753" y1=".338" x2="21.753" y2="43.956" gradientUnits="userSpaceOnUse"><stop stop-color="#EE4224"/><stop offset=".05" stop-color="#E94925"/><stop offset=".29" stop-color="#D36528"/><stop offset=".53" stop-color="#C47A2B"/><stop offset=".77" stop-color="#BB862C"/><stop offset="1" stop-color="#B88A2D"/></linearGradient></defs></svg>