<svg width="120" height="120" fill="none" xmlns="http://www.w3.org/2000/svg"><path d="M68.032 48.012c.088-1.367.264-2.727.528-4.071.218-1.15.498-2.288.84-3.408.37-1.421.892-2.798 1.557-4.107a20.608 20.608 0 0 1 6.702-7.645 20.54 20.54 0 0 1 9.532-3.502h.394a20.36 20.36 0 0 0 12.522-5.918 20.982 20.982 0 0 0 1.861-2.18 54.11 54.11 0 0 1-3.855 10.035 53.572 53.572 0 0 1-3.864 6.475 54.375 54.375 0 0 1-6.038 7.174 55.65 55.65 0 0 1-4.284 3.856 32.664 32.664 0 0 0 8.202-2.574 32.67 32.67 0 0 1-18.3 9.048c-.707.108-1.414.189-2.13.242a20.67 20.67 0 0 1 1.44-8.196 20.631 20.631 0 0 1 4.553-6.959 20.77 20.77 0 0 1 2.505-2.134 20.54 20.54 0 0 0-10.734 10.026 19.26 19.26 0 0 0-.724 1.65c-.273.716-.51 1.447-.707 2.188Zm-50.027 55.114a20.815 20.815 0 0 1 1.86-2.143 20.362 20.362 0 0 1 12.523-5.919h.394a20.539 20.539 0 0 0 9.54-3.507 20.608 20.608 0 0 0 6.703-7.657 20.4 20.4 0 0 0 1.556-4.09 32.09 32.09 0 0 0 .841-3.407c.265-1.353.441-2.722.528-4.098a19.4 19.4 0 0 1-.698 2.125 19.17 19.17 0 0 1-.724 1.65 20.54 20.54 0 0 1-10.734 10.026 20.761 20.761 0 0 0 2.505-2.134 20.627 20.627 0 0 0 4.55-6.942 20.671 20.671 0 0 0 1.452-8.178c-.716.054-1.423.135-2.13.242a32.732 32.732 0 0 0-18.29 9.076 32.67 32.67 0 0 1 8.166-2.637A54.586 54.586 0 0 0 25.725 86.6c-.69.995-1.342 2-1.96 3.022a55.791 55.791 0 0 0-1.905 3.453 54.103 54.103 0 0 0-3.855 10.052Zm-.894-85.056a20.821 20.821 0 0 1 2.138 1.865 20.46 20.46 0 0 1 5.903 12.554v.386a20.657 20.657 0 0 0 3.504 9.562 20.589 20.589 0 0 0 7.641 6.714 20.28 20.28 0 0 0 4.097 1.56c1.116.343 2.251.625 3.398.843a31.48 31.48 0 0 0 4.088.53 19.9 19.9 0 0 1-2.182-.7 19.077 19.077 0 0 1-1.646-.727 20.55 20.55 0 0 1-10-10.76 20.783 20.783 0 0 0 2.129 2.51 20.567 20.567 0 0 0 6.944 4.572 20.526 20.526 0 0 0 8.18 1.445 28.344 28.344 0 0 0-.24-2.134 32.818 32.818 0 0 0-9.026-18.338 32.869 32.869 0 0 1 2.63 8.187 53.954 53.954 0 0 0-3.846-4.287 53.704 53.704 0 0 0-7.156-6.061 57.807 57.807 0 0 0-3.014-1.964 55.666 55.666 0 0 0-3.444-1.91A53.805 53.805 0 0 0 17.2 18.05l-.09.019ZM75.25 72.77a20.524 20.524 0 0 0-6.575-.897c.054.718.134 1.426.242 2.135a32.88 32.88 0 0 0 9.052 18.356 32.87 32.87 0 0 1-2.63-8.187 55.71 55.71 0 0 0 3.846 4.295 54.31 54.31 0 0 0 7.156 6.053c.993.69 1.994 1.345 3.014 1.964 1.02.619 2.28 1.318 3.444 1.91a53.776 53.776 0 0 0 10.062 3.829 20.783 20.783 0 0 1-2.137-1.874 20.456 20.456 0 0 1-5.904-12.554v-.386a20.658 20.658 0 0 0-3.5-9.56 20.588 20.588 0 0 0-7.636-6.716 20.279 20.279 0 0 0-4.079-1.56 31.896 31.896 0 0 0-3.398-.843 31.446 31.446 0 0 0-4.088-.53c.74.194 1.468.428 2.182.7.555.215 1.11.457 1.646.726a20.55 20.55 0 0 1 10 10.761 20.783 20.783 0 0 0-2.129-2.51 20.4 20.4 0 0 0-8.569-5.12v.008ZM0 60.764a21.072 21.072 0 0 1 2.826-.189 20.397 20.397 0 0 1 13.033 4.681c.076.074.157.143.241.207a20.522 20.522 0 0 0 19.311 3.65 20.425 20.425 0 0 0 4.008-1.794 40.11 40.11 0 0 0 2.996-1.794 34.472 34.472 0 0 0 3.265-2.528 21.88 21.88 0 0 1-2.04 1.049c-.545.242-1.109.466-1.681.663a20.524 20.524 0 0 1-14.589-.502c1.083.173 2.178.26 3.274.26 3.37.004 6.689-.828 9.66-2.421a20.747 20.747 0 0 0 5.313-4.044c-.545-.467-1.1-.897-1.672-1.337a32.682 32.682 0 0 0-19.374-6.537 32.324 32.324 0 0 1 7.63 3.919 53.645 53.645 0 0 0-22.397 2.35A52.846 52.846 0 0 0 0 60.764Zm76.27-4.547c.546-.242 1.11-.466 1.682-.663a20.523 20.523 0 0 1 14.66.529 20.677 20.677 0 0 0-3.274-.26c-3.374.01-6.692.857-9.66 2.466a20.746 20.746 0 0 0-5.268 4.044c.545.466 1.1.897 1.672 1.336a32.681 32.681 0 0 0 19.33 6.537 32.321 32.321 0 0 1-7.63-3.918c1.907.201 3.824.303 5.742.305a53.63 53.63 0 0 0 9.338-.861 56.638 56.638 0 0 0 3.515-.754 57.366 57.366 0 0 0 3.784-1.085A53.2 53.2 0 0 0 120 59.526a20.398 20.398 0 0 1-15.859-4.493 2.77 2.77 0 0 0-.25-.206 20.522 20.522 0 0 0-19.392-3.712 20.662 20.662 0 0 0-3.998 1.793 40.076 40.076 0 0 0-2.997 1.794 34.466 34.466 0 0 0-3.264 2.564 21.898 21.898 0 0 1 2.03-1.049ZM53.91 88.007a54.044 54.044 0 0 0 2.343 22.437 53.466 53.466 0 0 0 4.356 9.864 21.255 21.255 0 0 1-.188-2.834 20.517 20.517 0 0 1 4.67-13.066c.073-.079.141-.163.205-.251a20.646 20.646 0 0 0 4.275-9.216 20.677 20.677 0 0 0-.634-10.145c-.451-1.399-1.051-2.746-1.79-4.017a40.28 40.28 0 0 0-1.788-3.004 34.558 34.558 0 0 0-2.496-3.345c.384.663.734 1.345 1.047 2.045.241.547.465 1.112.662 1.686a20.675 20.675 0 0 1-.528 14.697c.173-1.085.26-2.183.26-3.282a20.524 20.524 0 0 0-2.416-9.685 20.788 20.788 0 0 0-4.034-5.282 40.555 40.555 0 0 0-1.332 1.677A32.876 32.876 0 0 0 50 95.666a32.467 32.467 0 0 1 3.909-7.66ZM59.374 0c.129.94.194 1.886.197 2.834a20.514 20.514 0 0 1-4.678 13.065c-.074.08-.142.164-.206.251a20.676 20.676 0 0 0-3.703 19.424 20.53 20.53 0 0 0 1.789 4.017 40.283 40.283 0 0 0 1.789 3.005 34.57 34.57 0 0 0 2.522 3.273 21.981 21.981 0 0 1-1.046-2.045 21.228 21.228 0 0 1-.662-1.686 20.674 20.674 0 0 1 .527-14.697 20.913 20.913 0 0 0-.259 3.282c.02 3.385.878 6.713 2.495 9.684a20.794 20.794 0 0 0 3.99 5.327 40.47 40.47 0 0 0 1.333-1.677 32.876 32.876 0 0 0 6.52-19.379 32.463 32.463 0 0 1-3.909 7.605c.201-1.913.303-3.834.305-5.757a54.037 54.037 0 0 0-.814-9.38 55.048 55.048 0 0 0-.752-3.524 54.154 54.154 0 0 0-1.082-3.794A53.125 53.125 0 0 0 59.374 0Z" fill="url(#a)"/><defs><linearGradient id="a" x1="59.991" y1=".933" x2="59.991" y2="121.222" gradientUnits="userSpaceOnUse"><stop stop-color="#EE4224"/><stop offset=".05" stop-color="#E94925"/><stop offset=".29" stop-color="#D36528"/><stop offset=".53" stop-color="#C47A2B"/><stop offset=".77" stop-color="#BB862C"/><stop offset="1" stop-color="#B88A2D"/></linearGradient></defs></svg>